<?xml version="1.0" encoding="UTF-8"?>
<svg version="1.1" xmlns="http://www.w3.org/2000/svg" width="4000" height="4000">
<path d="M0 0 C86.49155251 -0.02062567 172.98310684 -0.03021464 1086.34310095 0.21563466 C1091.46077342 0.21805703 1096.5784459 0.22047735 1101.69611838 0.22289652 C1174.82561359 0.25746683 1247.95510861 0.29245448 1540.65909384 0.43630803 C1558.95933404 0.44539916 1577.25957425 0.45448596 1595.55981445 0.46356201 C1596.6950676 0.46412505 1596.6950676 0.46412505 1597.85325516 0.46469946 C1670.88291026 0.5009165 1743.91256572 0.53635714 1816.94222128 0.57162168 C1820.06755439 0.5731309 1823.19288749 0.57464033 1826.3182206 0.57614977 C1855.09609323 0.59004857 1883.87396586 0.60393862 1912.6518385 0.61781773 C1913.80051106 0.61837172 1913.80051106 0.61837172 1914.97238914 0.6189369 C1917.29097947 0.62005512 1919.60956981 0.62117333 1921.92816014 0.62229155 C1984.42907974 0.6524347 2046.92999929 0.68265368 2109.43091883 0.71292242 C2111.63208335 0.71398841 2113.83324788 0.71505434 2116.0344124 0.71612025 C2187.11853252 0.75054292 2258.20265257 0.78509956 2508.3918457 0.90820312 C2509.60649577 0.9088028 2510.82114583 0.90940248 2512.07260348 0.91002033 C2572.71506901 0.93996035 2633.35753452 0.96994921 2694 1 C2693.48351702 10.2221383 2692.95183566 19.43343122 2692.10636616 28.63237953 C2692.02177174 29.57678551 2691.93717732 30.52119149 2691.85001944 31.49421583 C2691.57025641 34.61035731 2691.28676695 37.72614747 2691.00325012 40.84194946 C2690.79736012 43.12646856 2690.5917034 45.41100869 2690.38625711 47.69556773 C2689.82248798 53.95716521 2689.2554295 60.21846105 2688.68782455 66.47971183 C2688.13443237 72.59007023 2687.58356431 78.70065574 2687.03262005 84.81123525 C2685.89414939 97.43716672 2684.75320034 110.0628731 2683.61088753 122.68845749 C2682.45799062 135.43116381 2681.30627412 148.173976 2680.15600395 160.91691971 C2680.04712769 162.12306617 2680.04712769 162.12306617 2679.93605191 163.35357922 C2679.56606773 167.45238607 2679.19610434 171.55119479 2678.82614946 175.65000428 C2676.15312832 205.26461788 2673.47764993 234.87900905 2670.80090332 264.49328613 C2668.1310469 294.03149725 2665.4623893 323.56981634 2662.79528809 353.10827637 C2662.67022225 354.49339178 2662.67022225 354.49339178 2662.54262983 355.90648932 C2661.52681609 367.15676633 2660.51105788 378.40704835 2659.49532344 389.65733252 C2657.95618234 406.70486101 2656.41695403 423.75238163 2654.87772588 440.79990227 C2654.61971021 443.65752775 2654.36169631 446.5151534 2654.10368277 449.37277907 C2651.6683746 476.34495237 2649.23262743 503.31708599 2646.79653879 530.2891888 C2638.90849975 617.62468399 2631.02415797 704.96051053 2620.20555753 824.96538268 C2619.99600592 827.29003686 2619.78645308 829.61469093 2619.57689995 831.93934497 C2616.32985 867.96017076 2613.08319603 903.98103222 2609.83674417 940.00191192 C2606.65360246 975.32033209 2603.46997474 1010.63870845 2600.28624033 1045.95707521 C2600.0074902 1049.04935675 2599.72874062 1052.14163835 2599.44999105 1055.23391995 C2598.33484256 1067.60471232 2597.21969287 1079.97550458 2596.10453702 1092.34629628 C2594.29507925 1112.41920834 2592.48565485 1132.49212341 2590.6762589 1152.56504104 C2583.70685211 1229.8816212 2576.73673208 1307.19813702 2566.33203125 1422.59765625 C2566.22565887 1423.77742898 2566.22565887 1423.77742898 2566.11713756 1424.9810355 C2562.09957468 1469.53969654 2558.08193132 1514.09835031 2554.06425802 1558.65700139 C2552.5683375 1575.24774841 2551.07242322 1591.83849598 2549.57651021 1608.42924368 C2548.86702608 1616.29793113 2548.15754164 1624.16661855 2547.44805717 1632.03530598 C2547.34271867 1633.20358493 2547.34271867 1633.20358493 2547.23525212 1634.39546547 C2545.60065322 1652.52433001 2543.96605289 1670.65319441 2542.33145142 1688.78205872 C2542.26095579 1689.56390411 2542.19046017 1690.3457495 2542.11782832 1691.15128718 C2540.2638717 1711.71295286 2538.4099106 1732.27461814 2536.55594475 1752.83628298 C2529.14795695 1834.99559749 2521.74013309 1917.15492678 2512.9281742 2014.88968664 C2510.82761584 2038.18730965 2508.7270509 2061.48493207 2506.62648038 2084.78255398 C2506.3173903 2088.21070081 2506.00830027 2091.63884764 2505.69921024 2095.06699448 C2504.39473507 2109.53505217 2503.09025962 2124.00310984 2501.78578341 2138.47116745 C2500.87646535 2148.55649236 2499.9671478 2158.64181732 2499.05783081 2168.72714233 C2498.9834167 2169.55247655 2498.90900259 2170.37781077 2498.83233351 2171.22815512 C2496.79554489 2193.81838036 2494.75877147 2216.40860698 2492.72201659 2238.99883526 C2492.23341874 2244.41801098 2491.74481854 2249.83718649 2491.2562173 2255.2563619 C2490.97944619 2258.32608822 2490.7026752 2261.39581455 2490.42590427 2264.46554089 C2490.35768103 2265.22221932 2490.28945779 2265.97889775 2490.21916718 2266.75850584 C2489.39832234 2275.86267693 2488.57749176 2284.9668493 2487.75668183 2294.07102354 C2487.01374757 2302.31142367 2486.27080269 2310.55182284 2485.52784729 2318.79222107 C2485.42831359 2319.89618871 2485.42831359 2319.89618871 2485.32676911 2321.02245872 C2483.49018225 2341.39271115 2481.65316308 2361.76292455 2479.81569744 2382.13309773 C2478.66208586 2394.9220742 2477.50859217 2407.7110613 2476.35514206 2420.50005233 C2476.16436784 2422.61526689 2475.97358968 2424.7304811 2475.78281088 2426.84569524 C2472.32385924 2465.19629284 2468.87036366 2503.54737763 2465.42237464 2541.89896241 C2465.35323811 2542.66795924 2465.28410159 2543.43695606 2465.21287002 2544.22925582 C2465.07325916 2545.78213304 2464.93364913 2547.33501035 2464.79403992 2548.88788772 C2463.76367971 2560.34848359 2462.73280004 2571.80903262 2461.70145416 2583.26953983 C2461.63466531 2584.01171958 2461.56787646 2584.75389933 2461.4990637 2585.51856937 C2460.83251765 2592.92538948 2460.16590908 2600.33220395 2459.49921256 2607.7390105 C2458.08294909 2623.47355217 2456.66801585 2639.20821181 2455.25581884 2654.943119 C2454.24701168 2666.18306456 2453.23627662 2677.42283542 2452.22363669 2688.66243644 C2451.67749323 2694.72501544 2451.13227028 2700.78767371 2450.58943558 2706.85054994 C2450.09350754 2712.3894127 2449.59510524 2717.92804689 2449.09468776 2723.4665058 C2448.91397774 2725.47155428 2448.73420013 2727.47668705 2448.55542868 2729.4819093 C2448.31340194 2732.19517982 2448.06804746 2734.9081292 2447.82183075 2737.62102222 C2447.75264997 2738.40569193 2447.6834692 2739.19036163 2447.61219203 2739.9988092 C2447.27069762 2743.72229948 2446.82820679 2747.35161218 2446 2751 C2427.74503404 2756.36621463 2409.45045758 2761.58926372 2391.14411163 2766.77669907 C2388.76508758 2767.45093713 2386.38616115 2768.12551861 2384.00726318 2768.80020142 C2350.1372073 2778.40593991 2316.25545811 2787.97023879 2282.37289238 2797.53173637 C2261.54758697 2803.40864342 2240.72465194 2809.29393025 2219.90186691 2815.17975998 C2189.28996638 2823.83250205 2158.6770259 2832.48155131 2128.0625 2841.125 C2127.19089863 2841.37108253 2126.31929726 2841.61716507 2125.42128372 2841.87070465 C2111.40764214 2845.82722083 2097.39391319 2849.78342756 2083.38017273 2853.73959351 C2070.23257296 2857.45124621 2057.08500585 2861.1630146 2043.9375 2864.875 C2043.06646259 2865.1209214 2042.19542519 2865.3668428 2041.29799271 2865.62021637 C2010.59057595 2874.2899394 1979.88504908 2882.96634026 1949.18014526 2891.6449585 C1920.74808812 2899.68113107 1892.31464032 2907.71236316 1863.88006592 2915.73962402 C1836.22205146 2923.54768782 1808.56546574 2931.36079354 1780.90990067 2939.17752838 C1750.29521757 2947.83064437 1719.67970075 2956.48079612 1689.0625 2965.125 C1688.19089863 2965.37108253 1687.31929726 2965.61716507 1686.42128372 2965.87070465 C1672.40764214 2969.82722083 1658.39391319 2973.78342756 1644.38017273 2977.73959351 C1631.23257296 2981.45124621 1618.08500585 2985.1630146 1604.9375 2988.875 C1604.06646259 2989.1209214 1603.19542519 2989.3668428 1602.29799271 2989.62021637 C1572.56852645 2998.01383151 1542.84081185 3006.41363545 1513.11375427 3014.81577682 C1484.37080916 3022.93974469 1455.6269953 3031.06062789 1426.88183594 3039.17675781 C1424.25528553 3039.91836084 1421.6287409 3040.65998431 1419.00219727 3041.40161133 C1418.1670352 3041.63738073 1417.33187313 3041.87315014 1416.47140312 3042.11606407 C1414.81004561 3042.58523401 1413.14877607 3043.05471553 1411.48759651 3043.52451515 C1407.45880536 3044.66345827 1403.42867056 3045.79703875 1399.39498901 3046.91854858 C1391.93762585 3048.99793273 1384.50751932 3051.12956131 1377.11884975 3053.4429121 C1373.61295095 3054.53684372 1370.09829353 3055.60091913 1366.58260536 3056.66290474 C1364.92680174 3057.17204185 1363.27528524 3057.69539336 1361.62901878 3058.23457146 C1350.5925159 3061.8446922 1342.9911195 3062.42905325 1331.9620266 3058.65485191 C1329.3721234 3057.79043801 1326.75022822 3057.08716526 1324.11329365 3056.38211632 C1320.64419254 3055.45286592 1317.19103462 3054.46650106 1313.734375 3053.4921875 C1312.17273934 3053.05382077 1310.61105145 3052.61564009 1309.04931641 3052.17762756 C1304.83220394 3050.99419111 1300.61592656 3049.80780536 1296.39982605 3048.6207695 C1292.80556448 3047.60919719 1289.21082159 3046.59934092 1285.61609268 3045.58943081 C1248.93170186 3035.28262714 1212.26518062 3024.91240751 1175.59886551 3014.54152679 C1156.57812811 3009.16174672 1137.55442097 3003.79253005 1118.52938461 2998.4279747 C1116.12526469 2997.75007464 1113.7211546 2997.07213975 1111.31704712 2996.39419556 C1103.3759651 2994.1548738 1095.43482936 2991.91574266 1087.49365234 2989.67675781 C1072.2832671 2985.38823964 1057.07312982 2981.09884222 1041.86309052 2976.80909729 C1040.24717059 2976.35335407 1038.63124957 2975.89761472 1037.01532745 2975.44187927 C1009.61270395 2967.713556 982.21198916 2959.97848478 954.81197357 2952.24092102 C928.39665525 2944.78145297 901.98034428 2937.32551757 875.5625 2929.875 C874.76308613 2929.64954247 873.96367226 2929.42408493 873.14003372 2929.19179535 C861.09341672 2925.79431424 849.04671802 2922.39712288 837 2919 C824.14578629 2915.37516679 811.29160346 2911.75022415 798.4375 2908.125 C797.23922514 2907.7870554 797.23922514 2907.7870554 796.01674271 2907.44228363 C768.61364147 2899.71384678 741.21246131 2891.97861811 713.81197357 2884.24092102 C687.39665525 2876.78145297 660.98034428 2869.32551757 634.5625 2861.875 C633.76308613 2861.64954247 632.96367226 2861.42408493 632.14003372 2861.19179535 C620.09341672 2857.79431424 608.04671802 2854.39712288 596 2851 C583.14578629 2847.37516679 570.29160346 2843.75022415 557.4375 2840.125 C556.23922514 2839.7870554 556.23922514 2839.7870554 555.01674271 2839.44228363 C527.61364147 2831.71384678 500.21246131 2823.97861811 472.81197357 2816.24092102 C439.23508411 2806.75908434 405.65599253 2797.28507519 372.07560539 2787.81563377 C360.16842611 2784.45788081 348.26154422 2781.09907491 336.35483742 2777.73964691 C331.03688149 2776.23923304 325.71888865 2774.73895005 320.40089703 2773.23866272 C316.18496393 2772.04926938 311.9690544 2770.85979263 307.75320435 2769.67010498 C303.83915805 2768.56558542 299.92504389 2767.46130668 296.01088524 2766.35718536 C294.52315929 2765.93747191 293.03545873 2765.51766847 291.54778481 2765.09777069 C284.13475997 2763.00548086 276.72024723 2760.91907646 269.29931641 2758.85498047 C268.1246431 2758.52791611 266.94996979 2758.20085175 265.73970032 2757.86387634 C263.57565309 2757.26206058 261.41112275 2756.66197815 259.24601746 2756.0639801 C258.30994156 2755.80366501 257.37386566 2755.54334991 256.40942383 2755.27514648 C255.59967606 2755.05116684 254.78992828 2754.82718719 253.9556427 2754.59642029 C252 2754 252 2754 250 2753 C249.53512116 2750.71970189 249.53512116 2750.71970189 249.23165303 2747.67133957 C249.1149391 2746.5426662 248.99822516 2745.41399282 248.87797443 2744.25111723 C248.76081265 2743.02210109 248.64365087 2741.79308495 248.52293873 2740.5268259 C248.39509241 2739.25903607 248.26724609 2737.99124624 248.13552563 2736.68503854 C247.74627163 2732.79099028 247.37106341 2728.89581998 247 2725 C246.89446674 2723.90665149 246.78893347 2722.81330298 246.68020223 2721.6868227 C245.97102977 2714.31719414 245.29891655 2706.94442723 244.63298035 2699.57078552 C244.41181667 2697.14089447 244.1904548 2694.71102145 243.96891588 2692.28116459 C243.4919218 2687.04451889 243.01629378 2681.80775109 242.54194283 2676.57086539 C241.83306882 2668.74491326 241.12153364 2660.91920454 240.40952137 2653.09353738 C239.19979977 2639.79675554 237.99218875 2626.4997828 236.78578377 2613.20269966 C235.57347464 2599.84061901 234.36019561 2586.47862697 233.14571953 2573.11674309 C233.06911354 2572.27390308 232.99250756 2571.43106307 232.91358018 2570.56268245 C232.52331708 2566.2689475 232.13303863 2561.97521395 231.74275514 2557.68148085 C228.93854487 2526.83036575 226.13653876 2495.9790508 223.33575439 2465.12762451 C220.56185651 2434.57239442 217.78700021 2404.01725161 215.01092529 2373.46221924 C214.83606455 2371.53759187 214.66120388 2369.6129645 214.48634326 2367.68833712 C213.78529479 2359.97216721 213.08424046 2352.25599784 212.38317931 2344.53982909 C203.81548902 2250.24010888 195.2529391 2155.93992217 158.30497943 1748.75664187 C155.88316798 1722.05389249 153.46122626 1695.35115493 151.0390625 1668.6484375 C150.92577462 1667.39951376 150.81248673 1666.15059002 150.69576588 1664.86382011 C143.25151315 1582.79641361 135.79738026 1500.7299076 128.3359375 1418.6640625 C128.21297035 1417.31158398 128.0900032 1415.95910545 127.96703607 1414.60662693 C124.08358306 1371.89377645 120.19945652 1329.18098722 116.31523235 1286.46820687 C112.51069297 1244.6316784 108.70628138 1202.79513832 104.90250281 1160.95854067 C104.77999195 1159.61108134 104.65748085 1158.26362203 104.53496953 1156.91616274 C97.07775262 1074.89682026 89.62803301 992.87680066 81.46875 902.9375 C81.22906332 900.29545902 80.98937651 897.65341805 80.74968958 895.0113771 C76.22604464 845.14753219 71.70321484 795.28361336 67.18157959 745.41958618 C64.35842219 714.28619917 61.53492011 683.15284343 58.7109375 652.01953125 C58.59394633 650.72973029 58.47695515 649.43992932 58.35641879 648.11104348 C51.19392686 569.14653037 44.01732193 490.18330972 36.19476295 404.25003636 C36.12497692 403.4834291 36.0551909 402.71682184 35.98329015 401.92698406 C35.87863667 400.77735411 35.87863667 400.77735411 35.77186899 399.60449932 C35.63098601 398.05688317 35.49010311 396.50926701 35.34922028 394.96165085 C35.27951701 394.19595159 35.20981374 393.43025233 35.13799825 392.64135006 C33.67653405 376.58689732 32.21544419 360.53241052 30.75442895 344.47791691 C29.72661203 333.18367476 28.69874745 321.88943694 27.67088938 310.59519853 C27.33102857 306.8607603 26.99117037 303.12632183 26.65131766 299.39188287 C25.70754553 289.02134102 24.76372836 278.65080327 23.81982422 268.28027344 C23.72042329 267.18816981 23.72042329 267.18816981 23.61901426 266.07400349 C21.43470363 242.07557198 19.24839694 218.07732272 17.06114848 194.07915881 C14.9511887 170.92888435 12.84306611 147.77844334 10.73679769 124.62783271 C9.48328022 110.85086233 8.22816073 97.07403994 6.97082989 83.29741705 C6.13031069 74.08626457 5.29171977 64.8749379 4.45471998 55.66346496 C3.9769155 50.40572816 3.49822932 45.14807556 3.01716995 39.89063549 C2.58009413 35.11373117 2.14548247 30.33660947 1.71288125 25.5592979 C1.55642817 23.8364702 1.39905509 22.11372575 1.24067755 20.3910739 C1.02646497 18.05968726 0.81557394 15.72802319 0.60552406 13.39625835 C0.48768456 12.10284423 0.36984506 10.8094301 0.24843466 9.4768216 C0.02146788 6.30044113 -0.01775751 3.18241003 0 0 Z M1809 2719 C1813 2720 1813 2720 1813 2720 Z M1798 2722 C1802 2723 1802 2723 1802 2723 Z M1787 2725 C1791 2726 1791 2726 1791 2726 Z M1783 2726 C1787 2727 1787 2727 1787 2727 Z M1776 2728 C1780 2729 1780 2729 1780 2729 Z M1772 2729 C1776 2730 1776 2730 1776 2730 Z M1765 2731 C1769 2732 1769 2732 1769 2732 Z M1761 2732 C1765 2733 1765 2733 1765 2733 Z M1754 2734 C1758 2735 1758 2735 1758 2735 Z M1750 2735 C1754 2736 1754 2736 1754 2736 Z M1743 2737 C1747 2738 1747 2738 1747 2738 Z M1736 2740 C1739.465 2739.505 1739.465 2739.505 1743 2739 C1739.51418144 2737.7979936 1739.32007656 2737.78661563 1736 2740 Z M1732 2740 C1736 2741 1736 2741 1736 2741 Z M1725 2743 C1728.465 2742.505 1728.465 2742.505 1732 2742 C1728.51418144 2740.7979936 1728.32007656 2740.78661563 1725 2743 Z M1721 2743 C1725 2744 1725 2744 1725 2744 Z M1710 2746 C1714.00200378 2747.60080151 1717.04556236 2746.29279692 1721 2745 C1716.99799622 2743.39919849 1713.95443764 2744.70720308 1710 2746 Z M1699 2749 C1703.00200378 2750.60080151 1706.04556236 2749.29279692 1710 2748 C1705.99799622 2746.39919849 1702.95443764 2747.70720308 1699 2749 Z M1688 2752 C1692.00200378 2753.60080151 1695.04556236 2752.29279692 1699 2751 C1694.99799622 2749.39919849 1691.95443764 2750.70720308 1688 2752 Z M1677 2755 C1681.00200378 2756.60080151 1684.04556236 2755.29279692 1688 2754 C1683.99799622 2752.39919849 1680.95443764 2753.70720308 1677 2755 Z M1664.84423828 2758.08520508 C1663.60523993 2758.42043104 1663.60523993 2758.42043104 1662.34121132 2758.76242924 C1659.58292152 2759.51001392 1656.82664907 2760.26477967 1654.0703125 2761.01953125 C1652.1159447 2761.55074599 1650.16145392 2762.08150847 1648.20684814 2762.61184692 C1642.94053105 2764.04205335 1637.67590407 2765.47839204 1632.41155243 2766.91581345 C1626.91160101 2768.41639273 1621.41008467 2769.91121131 1615.90869141 2771.40649414 C1607.06012206 2773.81219196 1598.21236303 2776.22084548 1589.36523438 2778.63183594 C1578.75052655 2781.52433384 1568.13388565 2784.40963651 1557.515625 2787.2890625 C1556.78235363 2787.48792494 1556.04908226 2787.68678738 1555.29359055 2787.89167595 C1552.41512194 2788.67230788 1549.53664627 2789.45291379 1546.65814781 2790.23343563 C1538.96688771 2792.31906118 1531.27639972 2794.40752842 1523.5859375 2796.49609375 C1520.83431417 2797.24334258 1518.08268576 2797.99057267 1515.33105469 2798.73779297 C1514.6489839 2798.92301356 1513.96691311 2799.10823416 1513.26417351 2799.2990675 C1503.90925039 2801.83938257 1494.55402118 2804.37857012 1485.19874573 2806.91758728 C1483.7299089 2807.31623198 1482.26107243 2807.71487802 1480.79223633 2808.11352539 C1480.06449288 2808.3110374 1479.33674944 2808.5085494 1478.58695316 2808.71204662 C1474.23388871 2809.89353461 1469.88092235 2811.07538317 1465.52804279 2812.25755215 C1461.93148668 2813.23431584 1458.33489375 2814.21094394 1454.73828125 2815.1875 C1454.02396376 2815.38145418 1453.30964626 2815.57540836 1452.57368279 2815.77523994 C1442.4875321 2818.51357515 1432.39961537 2821.24532674 1422.31051636 2823.97277832 C1416.62109863 2825.5108658 1410.93214066 2827.05065062 1405.24328423 2828.59081268 C1400.60752173 2829.84569676 1395.97115513 2831.09831562 1391.3343153 2832.34921265 C1388.47099071 2833.12225317 1385.60826287 2833.89748553 1382.7456913 2834.67330933 C1380.79938523 2835.20009705 1378.85236466 2835.72424271 1376.90531921 2836.24829102 C1370.52720316 2837.97926603 1364.24408778 2839.83338484 1358 2842 C1358 2842.66 1358 2843.32 1358 2844 C1371.81173635 2840.95403759 1385.40665904 2837.19039386 1399.02392578 2833.37945557 C1406.20204443 2831.37085299 1413.3843324 2829.37721655 1420.56640625 2827.3828125 C1421.71795385 2827.06289904 1421.71795385 2827.06289904 1422.89276505 2826.73652267 C1442.13978892 2821.39092552 1461.41234498 2816.13926156 1480.6861496 2810.89120483 C1488.22923444 2808.83724061 1495.77205087 2806.78229058 1503.31491089 2804.72750092 C1505.1895787 2804.2168207 1507.06425317 2803.70616494 1508.93893433 2803.19553375 C1530.70919245 2797.26547083 1552.47210587 2791.30868834 1574.23095703 2785.33691406 C1577.15525295 2784.53443052 1580.07957344 2783.73203659 1583.00390625 2782.9296875 C1583.72516693 2782.73177109 1584.44642761 2782.53385468 1585.18954468 2782.3299408 C1595.59462121 2779.47528082 1606.00385426 2776.63616912 1616.41572571 2773.80639648 C1622.41936029 2772.17468348 1628.42203534 2770.53945348 1634.42450619 2768.90346527 C1639.33234098 2767.56618366 1644.24142965 2766.23363852 1649.15150166 2764.90459633 C1652.16404436 2764.08794811 1655.17533784 2763.26676901 1658.18629646 2762.44430161 C1659.5851626 2762.06320795 1660.98455267 2761.6840317 1662.38448906 2761.30688858 C1664.29659353 2760.79150882 1666.20670519 2760.26875232 1668.11669922 2759.74560547 C1669.18669159 2759.45507294 1670.25668396 2759.16454041 1671.35910034 2758.86520386 C1674.18567929 2758.06983127 1674.18567929 2758.06983127 1677 2756 C1672.65469871 2756 1668.98867553 2756.94223412 1664.84423828 2758.08520508 Z " fill="#D3B62A" transform="translate(653,469)"/>
<path d="M0 0 C363.99 0 727.98 0 1103 0 C1103 6.69277514 1102.85110645 13.11445515 1102.24503136 19.74311161 C1102.12240306 21.14311258 1102.12240306 21.14311258 1101.99729742 22.57139639 C1101.72285557 25.69227362 1101.44215241 28.81255503 1101.16146851 31.93287659 C1100.96041666 34.20420037 1100.75975193 36.47555845 1100.55943906 38.74694753 C1100.00639527 45.00518761 1099.44785056 51.26292649 1098.88843316 57.52059962 C1098.3437617 63.61823297 1097.80412939 69.7163134 1097.26394669 75.81434571 C1096.14674864 88.42456065 1095.02540764 101.03440409 1093.90181351 113.6440506 C1092.76680744 126.38198908 1091.63373898 139.12009771 1090.5030632 151.85842133 C1090.43179664 152.66130805 1090.36053007 153.46419478 1090.28710391 154.29141141 C1089.92384076 158.38403486 1089.56061115 162.47666129 1089.19739471 166.56928889 C1086.56960382 196.17790061 1083.93766873 225.78614273 1081.30358887 255.39419556 C1078.67457138 284.94557984 1076.04750707 314.4971368 1073.42297363 344.04891968 C1073.34095869 344.97238785 1073.25894374 345.89585602 1073.17444349 346.84730808 C1072.17506046 358.10017618 1071.17575941 369.35305155 1070.17648528 380.60592932 C1068.66122308 397.66931118 1067.14578051 414.73267703 1065.63030673 431.79604011 C1065.46089385 433.70353402 1065.29148171 435.61102799 1065.12207031 437.51852204 C1062.54974549 466.48170116 1059.97654955 495.44480278 1057.40263381 524.40784056 C1056.97092904 529.26560908 1056.53922934 534.12337806 1056.10752916 538.98114699 C1055.97948663 540.42196344 1055.97948663 540.42196344 1055.84885738 541.89188729 C1048.124985 628.80588655 1040.40836848 715.72052542 1031.23315903 819.2124993 C1030.95338055 822.36835636 1030.67359797 825.52421305 1030.39381534 828.68006975 C1027.82759457 857.62621314 1025.26154803 886.57237198 1022.69574928 915.51855278 C1022.5583489 917.0686406 1022.42094851 918.61872842 1022.28354811 920.16881625 C1022.2155551 920.93588211 1022.14756209 921.70294797 1022.07750868 922.49325826 C1018.48401351 963.03340851 1014.8897975 1003.57349482 1011.29513111 1044.11354124 C1011.08643193 1046.46721576 1010.8777331 1048.82089031 1010.66903433 1051.17456487 C1009.4164301 1065.30124945 1008.16381766 1079.4279333 1006.91119325 1093.55461609 C1005.03545387 1114.70858914 1003.15976354 1135.86256653 1001.28410735 1157.01654695 C994.96675965 1228.26468056 988.64907007 1299.51278385 982.33097172 1370.76085091 C982.25901935 1371.57224503 982.18706698 1372.38363915 982.11293423 1373.21962098 C981.89484127 1375.67901657 981.67674829 1378.13841217 981.4586553 1380.59780777 C981.38666947 1381.40957906 981.31468365 1382.22135035 981.24051644 1383.05772077 C980.87682034 1387.15905655 980.51312411 1391.26039233 980.14942766 1395.36172809 C978.11431162 1418.3113522 976.07925172 1441.26098129 974.0442398 1464.21061464 C972.88611658 1477.27122511 971.72798495 1490.33183484 970.56985278 1503.39244452 C970.28097386 1506.6502208 969.99209548 1509.90799712 969.70321755 1513.16577348 C966.42541886 1550.13062989 963.14741314 1587.09546791 959.86868286 1624.0602417 C959.76468669 1625.23270664 959.76468669 1625.23270664 959.65858958 1626.42885775 C959.44874195 1628.79470373 959.23889422 1631.16054971 959.02904648 1633.52639568 C958.74982872 1636.67432712 958.47061116 1639.82225857 958.19139385 1642.97019005 C958.12239201 1643.74812554 958.05339016 1644.52606104 957.98229735 1645.32757033 C955.35957325 1674.89653786 952.73716514 1704.4655334 950.11494065 1734.03454524 C949.91030692 1736.34205105 949.70567128 1738.6495567 949.50103512 1740.9570623 C942.85180337 1815.93483927 936.20861762 1890.9131465 926.82490975 1997.06530494 C925.04292301 2017.22577216 923.26034529 2037.38618703 921.4771933 2057.54655123 C921.22927072 2060.34958028 920.98135344 2063.1526098 920.73343592 2065.9556393 C919.6975125 2077.66808315 918.66157003 2089.38052532 917.62552667 2101.09295857 C916.91162546 2109.16362096 916.19778125 2117.23428838 915.48400879 2125.30496216 C915.4257474 2125.96372426 915.36748602 2126.62248637 915.30745914 2127.30121096 C913.400121 2148.86785489 911.49574175 2170.43475901 909.59281474 2192.00179256 C907.78224656 2212.52167954 905.96896124 2233.04132479 904.15273482 2253.56071174 C903.08605968 2265.612975 902.02173602 2277.66544069 900.96075376 2289.71820646 C900.25771981 2297.70225518 899.55179978 2305.68604514 898.84344123 2313.6696232 C898.44080068 2318.2085993 898.03949264 2322.74768292 897.64175081 2327.28709114 C897.28168327 2331.39629074 896.91794218 2335.50514708 896.55112422 2339.61374944 C896.41943875 2341.09626924 896.28915166 2342.57891401 896.16036146 2344.06168813 C895.98669293 2346.05891999 895.80758289 2348.05567652 895.62813854 2350.05239773 C895.53020415 2351.16141553 895.43226977 2352.27043334 895.33136767 2353.41305774 C895 2356 895 2356 894 2358 C891.36405217 2358.88912555 888.76621825 2359.65462944 886.08203125 2360.37109375 C884.80798935 2360.72133858 884.80798935 2360.72133858 883.50820923 2361.07865906 C880.61169984 2361.87269587 877.71214642 2362.65500254 874.8125 2363.4375 C872.71800121 2364.00894673 870.6236868 2364.58106961 868.52954102 2365.15380859 C862.63844418 2366.76249636 856.74448335 2368.36046628 850.84997559 2369.956604 C846.91141633 2371.02400739 842.97360907 2372.09413783 839.03613281 2373.16552734 C838.36225556 2373.34888421 837.68837831 2373.53224108 836.99408054 2373.72115421 C835.6140598 2374.09665469 834.23403998 2374.47215858 832.85402107 2374.84766579 C818.8098362 2378.6685834 804.76249523 2382.47781524 790.71424866 2386.2837677 C780.27882583 2389.11098827 769.84414444 2391.94092691 759.41015625 2394.7734375 C758.69095945 2394.96867634 757.97176266 2395.16391518 757.23077202 2395.36507034 C753.60444864 2396.34951773 749.97813964 2397.33401812 746.35183716 2398.31854248 C739.79762253 2400.09795405 733.24327975 2401.87689344 726.68894768 2403.65587234 C723.04262664 2404.64556259 719.39631373 2405.6352828 715.75 2406.625 C714.29166671 2407.02083348 712.83333337 2407.41666681 711.375 2407.8125 C710.653125 2408.0084375 709.93125 2408.204375 709.1875 2408.40625 C707 2409 704.8125 2409.59375 702.625 2410.1875 C701.90314357 2410.38343246 701.18128714 2410.57936493 700.43755627 2410.78123474 C698.97903539 2411.17711897 697.5205145 2411.57300317 696.0619936 2411.96888733 C692.41902966 2412.95769167 688.77606587 2413.94649659 685.13310242 2414.93530273 C678.5363387 2416.72585548 671.93957378 2418.51640382 665.342803 2420.30693054 C661.65171164 2421.30878415 657.96062119 2422.31064116 654.26953125 2423.3125 C653.54048899 2423.51038116 652.81144672 2423.70826233 652.06031227 2423.91213989 C643.16991895 2426.32523181 634.27956081 2428.73845328 625.38925171 2431.15185547 C583.71055159 2442.46612675 542.03039382 2453.77502382 500.35006618 2465.08329773 C449.83069949 2478.78949822 449.83069949 2478.78949822 399.3125 2492.5 C398.64113007 2492.68224121 397.96976013 2492.86448242 397.27804565 2493.05224609 C390.118452 2494.99570473 382.95888074 2496.93924585 375.79931641 2498.8828125 C367.44308016 2501.15121228 359.08678044 2503.41937815 350.73046875 2505.6875 C350.00172358 2505.8853006 349.2729784 2506.0831012 348.52215004 2506.28689575 C344.82623995 2507.29006192 341.13032902 2508.293225 337.43441772 2509.29638672 C330.85086923 2511.08332613 324.26732807 2512.87029256 317.68378639 2514.65725708 C314.03919123 2515.64650584 310.39459559 2516.63575283 306.75 2517.625 C305.29166666 2518.02083332 303.83333333 2518.41666666 302.375 2518.8125 C252.79166667 2532.27083333 203.20833333 2545.72916667 153.625 2559.1875 C152.54216154 2559.48141333 152.54216154 2559.48141333 151.43744755 2559.78126431 C149.9792891 2560.17705012 148.52113061 2560.57283577 147.06297207 2560.96862125 C143.4144626 2561.95893017 139.76595393 2562.94924204 136.1174469 2563.93955994 C129.58690394 2565.71214868 123.05635578 2567.48471824 116.52577686 2569.25717449 C112.92212846 2570.23523689 109.31848486 2571.21331698 105.71484375 2572.19140625 C104.9996501 2572.38552156 104.28445644 2572.57963688 103.54759026 2572.77963448 C93.51993779 2575.501341 83.49251226 2578.22388228 73.46524048 2580.94699097 C67.82825891 2582.47782351 62.19121747 2584.00843554 56.55416298 2585.53899956 C51.9784034 2586.78142439 47.40272268 2588.02413907 42.82710361 2589.26708126 C39.98977926 2590.03774742 37.15237704 2590.80812656 34.31495476 2591.57843208 C32.40493965 2592.09705446 30.49501671 2592.61601624 28.58509827 2593.13499451 C26.24571447 2593.76998083 23.90592942 2594.4034911 21.56570435 2595.03536987 C19.00311377 2595.72862759 16.44226325 2596.42713201 13.8822937 2597.12991333 C12.51913821 2597.5008785 11.15594934 2597.87172103 9.79272461 2598.24243164 C7.95042519 2598.74680504 7.95042519 2598.74680504 6.07090759 2599.2613678 C3 2600 3 2600 0 2600 C0 1742 0 884 0 0 Z " fill="#FAD725" transform="translate(2002,713)"/>
<path d="M0 0 C0.06740064 7.31437872 0.02933572 14.54119075 -0.6640625 21.82421875 C-0.81564214 23.54789999 -0.96682179 25.27161643 -1.11767578 26.99536133 C-1.2409726 28.37372665 -1.2409726 28.37372665 -1.36676025 29.77993774 C-4.20345821 61.71876993 -6.16960865 93.72279247 -8.26670837 125.71641541 C-8.38874081 127.57787084 -8.51077549 129.43932612 -8.6328125 131.30078125 C-8.69238695 132.20983782 -8.7519614 133.11889439 -8.81334114 134.05549812 C-9.55837468 145.41504679 -10.31596453 156.77343924 -11.12109375 168.12890625 C-11.19760162 169.21625565 -11.2741095 170.30360504 -11.35293579 171.42390442 C-11.7899292 177.50160676 -12.3165186 183.56341029 -12.9375 189.625 C-15.5248807 215.63972685 -16.95081419 241.78594842 -18.5625 267.875 C-20.27269377 295.54971861 -20.27269377 295.54971861 -21.125 307.875 C-21.20049072 309.00921387 -21.27598145 310.14342773 -21.35375977 311.31201172 C-21.42522217 312.32021973 -21.49668457 313.32842773 -21.5703125 314.3671875 C-21.65949951 315.65278564 -21.65949951 315.65278564 -21.75048828 316.96435547 C-22 319 -22 319 -23 321 C-109.50888718 321.595189 -196.01833133 322.04994518 -316.06856811 322.51238817 C-325.48305687 322.54779198 -334.89754126 322.5842023 -344.3120236 322.6212723 C-357.68720668 322.67392772 -371.06239569 322.72451895 -384.43759698 322.77233958 C-390.92261375 322.79554921 -397.40762691 322.81928891 -403.89263344 322.84524918 C-467.26178685 323.09405466 -530.62996392 323 -594 323 C-594 478.43 -594 633.86 -594 794 C-546.96669483 788.77401296 -546.96669483 788.77401296 -500 783 C-495.78295965 782.49646171 -491.56861803 782.00017053 -487.34765625 781.53515625 C-486.29093719 781.41716171 -485.23421814 781.29916718 -484.14547729 781.17759705 C-480.78476053 780.80336137 -477.42366537 780.43268311 -474.0625 780.0625 C-472.8882547 779.93238525 -471.7140094 779.80227051 -470.50418091 779.66821289 C-455.65679911 778.02375096 -440.80508604 776.44995707 -425.9375 775 C-410.08790126 773.45394981 -394.26147135 771.72647376 -378.4375 769.9375 C-377.33405243 769.81334717 -376.23060486 769.68919434 -375.09371948 769.5612793 C-363.89345494 768.29873487 -352.70441927 766.98449983 -341.53125 765.5 C-329.06090256 763.84486505 -316.56619656 762.43959895 -304.0625 761.0625 C-302.8882547 760.93238525 -301.7140094 760.80227051 -300.50418091 760.66821289 C-285.65679911 759.02375096 -270.80508604 757.44995707 -255.9375 756 C-240.08790126 754.45394981 -224.26147135 752.72647376 -208.4375 750.9375 C-207.33405243 750.81334717 -206.23060486 750.68919434 -205.09371948 750.5612793 C-193.89345494 749.29873487 -182.70441927 747.98449983 -171.53125 746.5 C-159.06092877 744.84486853 -146.5662827 743.43866618 -134.0625 742.0625 C-132.90354218 741.93437927 -131.74458435 741.80625854 -130.55050659 741.67425537 C-114.72781095 739.9265547 -98.90056266 738.22769795 -83.0625 736.625 C-81.81268845 736.49703537 -81.81268845 736.49703537 -80.53762817 736.3664856 C-78.20384257 736.12843707 -75.86962222 735.89533195 -73.53515625 735.6640625 C-71.59201538 735.46997803 -71.59201538 735.46997803 -69.60961914 735.27197266 C-66.05748805 735.00433153 -62.56066399 734.95121199 -59 735 C-59.64786197 748.09460836 -60.43893595 761.17288327 -61.375 774.25 C-61.43969482 775.16096436 -61.50438965 776.07192871 -61.57104492 777.01049805 C-62.47981808 789.7410706 -63.57035336 802.43396404 -64.87231445 815.13085938 C-66.16826129 828.05816187 -67.04949998 841.01204706 -67.91015625 853.97460938 C-68.45206669 862.02904883 -69.07275682 870.05433776 -69.96484375 878.078125 C-71.32461528 890.35708276 -72.12961152 902.67856306 -73 915 C-74.85406319 941.24658197 -74.85406319 941.24658197 -76.25906372 953.8470459 C-77.31837867 963.55965522 -77.94610941 973.30670329 -78.63162231 983.0513916 C-79.90807959 1001.13851116 -81.31361471 1019.20229676 -83.0625 1037.25 C-84.52036557 1052.29687275 -85.71710335 1067.34443712 -86.74490356 1082.42663574 C-87.58357932 1094.69970507 -88.6215176 1106.92436568 -89.87524414 1119.16308594 C-90.96973723 1130.09518237 -91.74937881 1141.03975772 -92.5 1152 C-93.41813645 1165.40622682 -94.50127342 1178.7651955 -95.87280273 1192.13378906 C-97.16798319 1205.06018134 -98.04956454 1218.01301943 -98.91015625 1230.97460938 C-99.45206669 1239.02904883 -100.07275682 1247.05433776 -100.96484375 1255.078125 C-102.32461528 1267.35708276 -103.12961152 1279.67856306 -104 1292 C-105.85406319 1318.24658197 -105.85406319 1318.24658197 -107.25906372 1330.8470459 C-108.31837867 1340.55965522 -108.94610941 1350.30670329 -109.63162231 1360.0513916 C-110.90807959 1378.13851116 -112.31361471 1396.20229676 -114.0625 1414.25 C-115.52036557 1429.29687275 -116.71710335 1444.34443712 -117.74490356 1459.42663574 C-118.58357932 1471.69970507 -119.6215176 1483.92436568 -120.87524414 1496.16308594 C-122.0604355 1508.00110152 -122.87445579 1519.85728906 -123.68649292 1531.72570801 C-124.56337951 1544.49363644 -125.63232705 1557.21556843 -126.94311523 1569.94677734 C-127.59801121 1576.42648176 -128.15712593 1582.89902544 -128.5625 1589.3984375 C-128.60592026 1590.09138916 -128.64934052 1590.78434082 -128.69407654 1591.49829102 C-128.89907577 1594.8228725 -129.09010058 1598.14732357 -129.26586914 1601.47363281 C-129.33410889 1602.65022461 -129.40234863 1603.82681641 -129.47265625 1605.0390625 C-129.52687744 1606.07240723 -129.58109863 1607.10575195 -129.63696289 1608.17041016 C-130.01761141 1611.13726717 -130.58862392 1613.3611243 -132 1616 C-134.66759644 1616.96304231 -136.93063666 1617.56251319 -139.6875 1618.0625 C-141.25172372 1618.38729892 -142.81552099 1618.71415769 -144.37890625 1619.04296875 C-145.55477295 1619.28152588 -145.55477295 1619.28152588 -146.75439453 1619.52490234 C-149.91099422 1620.19273698 -153.0131741 1621.02441092 -156.125 1621.875 C-162.32539408 1623.55236977 -168.53412251 1625.19339735 -174.75 1626.8125 C-175.7188916 1627.06499512 -176.6877832 1627.31749023 -177.68603516 1627.57763672 C-186.43597231 1629.85610393 -195.18866475 1632.12393613 -203.94140625 1634.39160156 C-214.02702553 1637.00521776 -224.10880541 1639.63339702 -234.18945312 1642.26611328 C-238.95940204 1643.51163677 -243.72972199 1644.75573768 -248.5 1646 C-250.41666839 1646.49999338 -252.33333506 1646.99999337 -254.25 1647.5 C-258.08333333 1648.5 -261.91666667 1649.5 -265.75 1650.5 C-266.69842773 1650.74741943 -267.64685547 1650.99483887 -268.62402344 1651.24975586 C-270.5439384 1651.75059616 -272.4638603 1652.25140989 -274.38378906 1652.75219727 C-279.12581349 1653.98912485 -283.86772321 1655.22648842 -288.609375 1656.46484375 C-300.05099754 1659.45237852 -311.49606147 1662.42637611 -322.94335938 1665.39208984 C-333.02831625 1668.0055871 -343.10945466 1670.63356658 -353.18945312 1673.26611328 C-357.95940204 1674.51163677 -362.72972199 1675.75573768 -367.5 1677 C-369.41666839 1677.49999338 -371.33333506 1677.99999337 -373.25 1678.5 C-384.75000001 1681.5 -384.75000001 1681.5 -387.62524414 1682.25 C-389.5411385 1682.74984097 -391.4569914 1683.24984088 -393.37280273 1683.75 C-398.17595765 1685.0037422 -402.97981029 1686.25468004 -407.78515625 1687.5 C-416.07369494 1689.65080115 -424.35680295 1691.81092531 -432.60888672 1694.09814453 C-445.01831075 1697.53593801 -457.49914825 1700.66310974 -469.9987793 1703.75317383 C-478.21914883 1705.78767044 -486.41590031 1707.88507543 -494.59399414 1710.08447266 C-499.38940676 1711.37346967 -504.19425772 1712.62518226 -509 1713.875 C-510.45394165 1714.25398438 -510.45394165 1714.25398438 -511.93725586 1714.640625 C-516.89611157 1715.93302252 -521.85578931 1717.22219223 -526.81640625 1718.5078125 C-535.09445686 1720.65626587 -543.36715387 1722.81379426 -551.60888672 1725.09814453 C-564.01831075 1728.53593801 -576.49914825 1731.66310974 -588.9987793 1734.75317383 C-597.21914883 1736.78767044 -605.41590031 1738.88507543 -613.59399414 1741.08447266 C-618.38940561 1742.37346936 -623.19423064 1743.62528934 -628 1744.875 C-629.98958629 1745.39321782 -631.97916953 1745.91144733 -633.96875 1746.4296875 C-634.96777344 1746.68975586 -635.96679688 1746.94982422 -636.99609375 1747.21777344 C-641.83116601 1748.47684134 -646.6655528 1749.73853466 -651.5 1751 C-653.42187328 1751.50130869 -655.34374828 1752.00261077 -657.265625 1752.50390625 C-661.0470204 1753.49032932 -664.82825977 1754.47734733 -668.609375 1755.46484375 C-680.05099754 1758.45237852 -691.49606147 1761.42637611 -702.94335938 1764.39208984 C-713.02831625 1767.0055871 -723.10945466 1769.63356658 -733.18945312 1772.26611328 C-737.95940204 1773.51163677 -742.72972199 1774.75573768 -747.5 1776 C-749.41666839 1776.49999338 -751.33333506 1776.99999337 -753.25 1777.5 C-759 1779 -759 1779 -764.75 1780.5 C-765.69842773 1780.74741943 -766.64685547 1780.99483887 -767.62402344 1781.24975586 C-769.5439384 1781.75059616 -771.4638603 1782.25140989 -773.38378906 1782.75219727 C-778.12581349 1783.98912485 -782.86772321 1785.22648842 -787.609375 1786.46484375 C-799.03552104 1789.44833744 -810.46439635 1792.4210799 -821.8972168 1795.37890625 C-827.5190184 1796.83419964 -833.13858717 1798.29721666 -838.75390625 1799.77734375 C-840.34912109 1800.19693359 -840.34912109 1800.19693359 -841.9765625 1800.625 C-843.99142784 1801.15549619 -846.00577632 1801.68796042 -848.01953125 1802.22265625 C-849.35757813 1802.57457031 -849.35757813 1802.57457031 -850.72265625 1802.93359375 C-851.50390869 1803.14040771 -852.28516113 1803.34722168 -853.09008789 1803.56030273 C-855 1804 -855 1804 -857 1804 C-857.6637367 1770.88359343 -858.12489972 1737.76819034 -858.46919632 1704.6471138 C-858.75506967 1677.180438 -859.0503471 1649.71455356 -859.5 1622.25 C-859.51796631 1621.10340912 -859.53593262 1619.95681824 -859.55444336 1618.77548218 C-859.71197865 1608.83451529 -859.88210074 1598.89638331 -860.25170898 1588.96069336 C-861.03466054 1567.89629014 -861.12164529 1546.86370535 -861.06866455 1525.78643799 C-861.05820706 1521.1655729 -861.05382029 1516.54470177 -861.04882812 1511.92382812 C-861.03828506 1502.94920366 -861.02135093 1493.97460484 -861 1485 C-858.95429716 1484.36274527 -856.9079447 1483.72757574 -854.86132812 1483.09326172 C-853.72183716 1482.73932343 -852.58234619 1482.38538513 -851.4083252 1482.02072144 C-846.47962299 1480.54467919 -841.50113433 1479.32716328 -836.5 1478.125 C-828.78396603 1476.23575246 -821.12441675 1474.23036099 -813.5 1472 C-806.03977036 1469.81960158 -798.54862175 1467.85101457 -791 1466 C-783.53440398 1464.16925332 -776.1266344 1462.22402543 -768.75 1460.0625 C-759.35376793 1457.31167705 -749.87929943 1454.94607971 -740.37304688 1452.60791016 C-732.43604471 1450.64316617 -724.57621606 1448.49820517 -716.73046875 1446.19921875 C-709.1805392 1444.0054216 -701.56662402 1442.11985481 -693.93164062 1440.24755859 C-687.49308073 1438.65652717 -681.11425953 1436.92737605 -674.75 1435.0625 C-665.35376793 1432.31167705 -655.87929943 1429.94607971 -646.37304688 1427.60791016 C-638.43604471 1425.64316617 -630.57621606 1423.49820517 -622.73046875 1421.19921875 C-615.1805392 1419.0054216 -607.56662402 1417.11985481 -599.93164062 1415.24755859 C-593.49308073 1413.65652717 -587.11425953 1411.92737605 -580.75 1410.0625 C-571.35376793 1407.31167705 -561.87929943 1404.94607971 -552.37304688 1402.60791016 C-544.43604471 1400.64316617 -536.57621606 1398.49820517 -528.73046875 1396.19921875 C-521.1805392 1394.0054216 -513.56662402 1392.11985481 -505.93164062 1390.24755859 C-499.49308073 1388.65652717 -493.11425953 1386.92737605 -486.75 1385.0625 C-477.35376793 1382.31167705 -467.87929943 1379.94607971 -458.37304688 1377.60791016 C-450.43604471 1375.64316617 -442.57621606 1373.49820517 -434.73046875 1371.19921875 C-427.1805392 1369.0054216 -419.56662402 1367.11985481 -411.93164062 1365.24755859 C-405.49307347 1363.65652538 -399.11430379 1361.92723978 -392.75 1360.0625 C-382.07052179 1356.93826155 -371.28608813 1354.27807393 -360.484375 1351.61328125 C-354.12753282 1350.042475 -347.8039941 1348.37084826 -341.4921875 1346.62890625 C-339 1346 -339 1346 -337 1346 C-336.17120205 1327.54431645 -335.728795 1309.09989081 -335.44775391 1290.62866211 C-335.10554866 1268.59095801 -335.10554866 1268.59095801 -334.5 1259.02734375 C-333.75130875 1247.19824441 -333.67753903 1235.34865617 -333.5 1223.5 C-333.43116658 1218.90617363 -333.35755855 1214.31245766 -333.28125 1209.71875 C-333.26767456 1208.70880981 -333.25409912 1207.69886963 -333.2401123 1206.6583252 C-333.13890954 1200.59469432 -332.87572424 1194.55720143 -332.51367188 1188.50488281 C-331.97172072 1179.33388457 -331.73369042 1170.16743374 -331.55444336 1160.98300934 C-331.4984391 1158.12342546 -331.43820075 1155.26395611 -331.37695312 1152.40447998 C-331.2039428 1144.29027677 -331.03887539 1136.17591561 -330.875 1128.06152344 C-330.77372876 1123.06106378 -330.6682438 1118.06070654 -330.56030273 1113.06038666 C-330.50103162 1110.25200498 -330.44675472 1107.44355465 -330.39257812 1104.6350708 C-330.35574149 1102.91458561 -330.31864615 1101.19410593 -330.28125 1099.47363281 C-330.26771484 1098.70061829 -330.25417969 1097.92760376 -330.24023438 1097.13116455 C-330.1444172 1092.9990488 -329.79236283 1089.0575513 -329 1085 C-333.85284555 1085.79625147 -338.70510006 1086.59599143 -343.55688477 1087.39868164 C-345.20028927 1087.67010039 -346.84383946 1087.94063873 -348.48754883 1088.21020508 C-357.93198255 1089.75975012 -367.32361332 1091.43264046 -376.70092773 1093.3503418 C-381.1159516 1094.21975484 -385.54371979 1094.88469771 -390 1095.5 C-395.87405763 1096.34425619 -401.68798408 1097.28705755 -407.5 1098.5 C-414.16948546 1099.89189262 -420.85793407 1100.90204763 -427.59765625 1101.875 C-432.60157906 1102.60839937 -437.54707763 1103.46634664 -442.5 1104.5 C-449.16948546 1105.89189262 -455.85793407 1106.90204763 -462.59765625 1107.875 C-467.60157906 1108.60839937 -472.54707763 1109.46634664 -477.5 1110.5 C-484.16948546 1111.89189262 -490.85793407 1112.90204763 -497.59765625 1113.875 C-502.60157906 1114.60839937 -507.54707763 1115.46634664 -512.5 1116.5 C-519.16948546 1117.89189262 -525.85793407 1118.90204763 -532.59765625 1119.875 C-537.60157906 1120.60839937 -542.54707763 1121.46634664 -547.5 1122.5 C-554.16948546 1123.89189262 -560.85793407 1124.90204763 -567.59765625 1125.875 C-572.60157906 1126.60839937 -577.54707763 1127.46634664 -582.5 1128.5 C-589.16948546 1129.89189262 -595.85793407 1130.90204763 -602.59765625 1131.875 C-607.60157906 1132.60839937 -612.54707763 1133.46634664 -617.5 1134.5 C-624.16948546 1135.89189262 -630.85793407 1136.90204763 -637.59765625 1137.875 C-642.60157906 1138.60839937 -647.54707763 1139.46634664 -652.5 1140.5 C-659.16948546 1141.89189262 -665.85793407 1142.90204763 -672.59765625 1143.875 C-677.60157906 1144.60839937 -682.54707763 1145.46634664 -687.5 1146.5 C-694.16948546 1147.89189262 -700.85793407 1148.90204763 -707.59765625 1149.875 C-712.60157906 1150.60839937 -717.54707763 1151.46634664 -722.5 1152.5 C-729.16948546 1153.89189262 -735.85793407 1154.90204763 -742.59765625 1155.875 C-747.60157906 1156.60839937 -752.54707763 1157.46634664 -757.5 1158.5 C-764.16948546 1159.89189262 -770.85793407 1160.90204763 -777.59765625 1161.875 C-782.60157906 1162.60839937 -787.54707763 1163.46634664 -792.5 1164.5 C-799.16579179 1165.89112176 -805.85042241 1166.90194384 -812.58666992 1167.87280273 C-818.90542592 1168.79777908 -825.11543141 1169.99937579 -831.3671875 1171.3046875 C-837.54225533 1172.4865822 -843.76162459 1173.23243271 -850 1174 C-851.17957251 1153.24725398 -851.29233489 1132.48649276 -851.47232056 1111.70666504 C-851.50042137 1108.51463589 -851.53011292 1105.32262527 -851.56030273 1102.13061523 C-851.97925084 1057.77329253 -852.25087854 1013.41493457 -852.53125 969.05657196 C-852.80069696 926.433037 -853.0776493 883.80986199 -853.5 841.1875 C-853.5103125 840.14679352 -853.520625 839.10608704 -853.53125 838.03384399 C-853.75276479 815.85359424 -854.00574913 793.67612903 -854.5 771.5 C-855.01767563 748.272845 -855.26905608 725.04395844 -855.5 701.8125 C-855.5103125 700.77915779 -855.520625 699.74581558 -855.53125 698.68115997 C-855.82788863 668.77678515 -856.04837915 638.8721051 -856.23427391 608.96687388 C-856.25001415 606.43913325 -856.26586627 603.91139335 -856.28175354 601.38365364 C-856.47390055 570.79793346 -856.47390055 570.79793346 -856.55444336 556.04653931 C-856.73572054 522.85470392 -856.97991062 489.67373952 -857.69915771 456.48819065 C-857.72044739 455.50402133 -857.74173706 454.51985201 -857.76367188 453.50585938 C-857.79512299 452.05217783 -857.79512299 452.05217783 -857.82720947 450.56912899 C-858.17811113 433.97613023 -858.31917335 417.37983628 -858.47232056 400.78405762 C-858.50085969 397.7202068 -858.53046015 394.65636769 -858.56030273 391.5925293 C-859.00176949 346.08723921 -859.28017309 300.58078182 -859.56149292 255.07427979 C-859.81692006 213.76886076 -860.13996691 172.46571596 -860.59589767 131.16193008 C-861.05831804 89.10724482 -861.10517632 47.0567613 -861 5 C-833.07601271 4.2593239 -805.15698315 3.75510438 -777.22442579 3.49762535 C-774.01255225 3.46792697 -770.80068887 3.43725882 -767.58882523 3.4065094 C-707.00295703 2.83293701 -646.41454923 2.71093314 -585.82650927 2.54780227 C-566.3241863 2.49522116 -546.82188236 2.43666831 -527.31958008 2.37695312 C-526.04222633 2.37304268 -526.04222633 2.37304268 -524.73906745 2.36905324 C-514.44376923 2.33751549 -504.14847178 2.30573127 -493.85317479 2.27379611 C-487.88310506 2.25528576 -481.9130349 2.23692189 -475.94296455 2.21861267 C-415.91262129 2.03432813 -355.88257249 1.809755 -295.85265207 1.51550055 C-292.68554501 1.49999043 -289.51843745 1.48458603 -286.3513298 1.46919632 C-237.2595207 1.23002398 -188.16999913 0.92946151 -139.08062744 0.37112427 C-92.72126656 -0.15595536 -46.36169333 -0.10053008 0 0 Z " fill="#FEFEFE" transform="translate(2970,1060)"/>
<path d="M0 0 C88.44 0 176.88 0 268 0 C268 594.99 268 1189.98 268 1803 C254.64788732 1800.77464789 254.64788732 1800.77464789 248.25 1798.75 C241.22202433 1796.58553996 234.1425676 1794.74694551 227 1793 C219.34592706 1791.12295821 211.77065485 1789.11398513 204.23046875 1786.82421875 C198.01851363 1784.95704149 191.74040217 1783.4136942 185.44042969 1781.87475586 C179.37971842 1780.38059785 173.40735885 1778.68180986 167.43359375 1776.875 C161.99394446 1775.248189 156.5149852 1773.84717196 151 1772.5 C144.07983453 1770.8095779 137.25136763 1768.93708662 130.43359375 1766.875 C124.99394446 1765.248189 119.5149852 1763.84717196 114 1762.5 C107.07983453 1760.8095779 100.25136763 1758.93708662 93.43359375 1756.875 C87.99394446 1755.248189 82.5149852 1753.84717196 77 1752.5 C70.07983453 1750.8095779 63.25136763 1748.93708662 56.43359375 1746.875 C50.99394446 1745.248189 45.5149852 1743.84717196 40 1742.5 C33.07983453 1740.8095779 26.25136763 1738.93708662 19.43359375 1736.875 C13.99394406 1735.24818888 8.5149822 1733.84718327 3 1732.5 C-3.13481361 1731.00129934 -9.20723688 1729.39753638 -15.25 1727.5625 C-22.11437323 1725.48078988 -29.03397679 1723.70887296 -36 1722 C-43.65394222 1720.12236989 -51.22931593 1718.113994 -58.76953125 1715.82421875 C-64.98148637 1713.95704149 -71.25959783 1712.4136942 -77.55957031 1710.87475586 C-83.62028158 1709.38059785 -89.59264115 1707.68180986 -95.56640625 1705.875 C-101.00605554 1704.248189 -106.4850148 1702.84717196 -112 1701.5 C-118.92016547 1699.8095779 -125.74863237 1697.93708662 -132.56640625 1695.875 C-138.00605554 1694.248189 -143.4850148 1692.84717196 -149 1691.5 C-155.92016547 1689.8095779 -162.74863237 1687.93708662 -169.56640625 1685.875 C-175.00605554 1684.248189 -180.4850148 1682.84717196 -186 1681.5 C-192.92016547 1679.8095779 -199.74863237 1677.93708662 -206.56640625 1675.875 C-212.00605554 1674.248189 -217.4850148 1672.84717196 -223 1671.5 C-229.92016547 1669.8095779 -236.74863237 1667.93708662 -243.56640625 1665.875 C-249.00605554 1664.248189 -254.4850148 1662.84717196 -260 1661.5 C-266.21768663 1659.98117579 -272.37344088 1658.35287174 -278.5 1656.5 C-284.5446788 1654.67308473 -290.61559759 1653.06032454 -296.75 1651.5625 C-304.60594984 1649.64404548 -312.37095313 1647.49327884 -320.13476562 1645.23291016 C-326.97169728 1643.25720441 -333.84895195 1641.51209494 -340.76171875 1639.82421875 C-346.75501576 1638.34719769 -352.66009055 1636.66131413 -358.56738281 1634.87475586 C-364.00667545 1633.24792675 -369.48534422 1631.84709149 -375 1630.5 C-381.92016547 1628.8095779 -388.74863237 1626.93708662 -395.56640625 1624.875 C-401.00605554 1623.248189 -406.4850148 1621.84717196 -412 1620.5 C-418.92016547 1618.8095779 -425.74863237 1616.93708662 -432.56640625 1614.875 C-438.00605554 1613.248189 -443.4850148 1611.84717196 -449 1610.5 C-455.92016547 1608.8095779 -462.74863237 1606.93708662 -469.56640625 1604.875 C-475.83938073 1602.99897025 -482.1747348 1601.43337797 -488.53442383 1599.8815918 C-494.80867677 1598.33600839 -501.00548039 1596.59864511 -507.18164062 1594.69921875 C-510.67953527 1593.63387013 -514.17002748 1592.71150131 -517.7434082 1591.93041992 C-518.54357864 1591.75484055 -519.34374908 1591.57926117 -520.16816711 1591.39836121 C-521.07492439 1591.20117241 -521.07492439 1591.20117241 -522 1591 C-522.12824095 1555.62834658 -522.25571096 1520.25669047 -522.38218227 1484.88503069 C-522.39719811 1480.6855608 -522.41222018 1476.48609094 -522.42724609 1472.28662109 C-522.43023671 1471.45076953 -522.43322732 1470.61491797 -522.43630856 1469.75373757 C-522.48440892 1456.31421738 -522.53301046 1442.87469906 -522.58180541 1429.43518138 C-522.63206145 1415.59007819 -522.68175995 1401.74497307 -522.73096704 1387.8998661 C-522.75853884 1380.14645881 -522.78635067 1372.39305255 -522.81480408 1364.63964844 C-522.93289774 1332.42641182 -523.04255974 1300.21351585 -523 1268 C-518.93010075 1268.56622857 -514.96624321 1269.16474824 -510.98828125 1270.19921875 C-510.07626953 1270.43576172 -509.16425781 1270.67230469 -508.22460938 1270.91601562 C-507.26361328 1271.17060547 -506.30261719 1271.42519531 -505.3125 1271.6875 C-504.29865234 1271.95369141 -503.28480469 1272.21988281 -502.24023438 1272.49414062 C-494.96121498 1274.42642248 -487.75187069 1276.54167871 -480.55297852 1278.75097656 C-473.36897316 1280.93658103 -466.12163453 1282.81958538 -458.84765625 1284.6796875 C-451.85480629 1286.48158342 -444.92329789 1288.44804948 -438 1290.5 C-429.30086581 1293.0772346 -420.56991965 1295.44822772 -411.7802124 1297.6953125 C-405.45211318 1299.32667163 -399.18316744 1301.09970324 -392.921875 1302.96875 C-376.25040951 1307.88092906 -359.45792778 1312.35770285 -342.68164062 1316.89526367 C-333.45943414 1319.38963985 -324.23922306 1321.89137686 -315.01893616 1324.39283752 C-312.90822906 1324.96545468 -310.79750103 1325.53799465 -308.68675232 1326.11045837 C-288.29739476 1331.64056551 -267.9199373 1337.2135109 -247.54640579 1342.8015976 C-212.49092865 1352.41625902 -177.41831476 1361.96701783 -142.33789062 1371.49023438 C-141.41947639 1371.73956191 -140.50106216 1371.98888945 -139.5548172 1372.24577236 C-135.06952486 1373.46339748 -130.58418294 1374.68083939 -126.09875488 1375.89796448 C-117.92601381 1378.11608617 -109.75437422 1380.33809537 -101.5859375 1382.57202148 C-81.51296716 1388.06438547 -81.51296716 1388.06438547 -61.375 1393.3125 C-47.71795533 1396.79987168 -34.0972249 1400.41130707 -20.5 1404.125 C-19.57703125 1404.37636719 -18.6540625 1404.62773437 -17.703125 1404.88671875 C-12.79266684 1406.22657233 -7.89367554 1407.59981983 -3 1409 C-3.00089345 1407.98950606 -3.0017869 1406.97901212 -3.00270742 1405.93789715 C-3.05956062 1338.89006506 -2.97736769 1271.84283 -2.83227539 1204.79516602 C-2.83009604 1203.787033 -2.82791669 1202.77889998 -2.82567131 1201.74021748 C-2.76733006 1174.78309309 -2.70638912 1147.82597472 -2.64467499 1120.86885786 C-2.60743889 1104.59568301 -2.57081733 1088.32250685 -2.53457451 1072.04932976 C-2.53194694 1070.8697648 -2.52931937 1069.69019985 -2.52661218 1068.4748905 C-2.51592587 1063.67700363 -2.50524284 1058.87911676 -2.49456421 1054.08122988 C-2.39761706 1010.52428422 -2.29942243 966.96734147 -2.20043945 923.41040039 C-2.10939837 883.34822783 -2.01916814 843.28605357 -1.92993164 803.22387695 C-1.92445946 800.76759802 -1.91898714 798.31131908 -1.91351469 795.85504015 C-1.91080709 794.6397406 -1.90809949 793.42444105 -1.90530984 792.17231424 C-1.90124979 790.34998193 -1.90124979 790.34998193 -1.89710772 788.49083483 C-1.89304922 786.66918704 -1.89304922 786.66918704 -1.88890873 784.81073828 C-1.88071553 781.13328915 -1.872522 777.45584002 -1.86432838 773.77839088 C-1.86162711 772.56594196 -1.85892584 771.35349304 -1.8561427 770.10430325 C-1.58906242 650.23601856 -1.3203222 530.36773583 -0.30152893 117.06434631 C-0.29909989 116.11401065 -0.29667085 115.16367499 -0.29416821 114.18454128 C-0.19687197 76.12302555 -0.09831939 38.06151311 0 0 Z " fill="#EAEDED" transform="translate(1631,1061)"/>
</svg>
