<?xml version="1.0" encoding="UTF-8"?>
<svg version="1.1" xmlns="http://www.w3.org/2000/svg" width="960" height="960">
<path d="M0 0 C2.57688196 1.33335318 4.47186694 2.2222721 7.40332031 2.08178711 C11.52890329 0.65612694 15.58879274 -0.90897692 19.63574219 -2.54125977 C38.60517746 -9.92742635 61.61309138 -9.15432658 80.17285156 -1.00024414 C87.80894234 2.54495839 94.60241349 6.63943452 100.95800781 12.19897461 C101.60640625 12.70557617 102.25480469 13.21217773 102.92285156 13.73413086 C106.80369811 16.86186263 109.3519542 19.82146196 111.91855812 24.12181568 C114.25834559 27.79151705 116.64157293 31.35013068 120.85947418 32.89575577 C126.41420134 33.90008153 132.02383128 33.3890259 137.62207031 33.03100586 C139.49736994 32.96119668 141.37291399 32.89771003 143.24862671 32.84005737 C147.26527422 32.70504031 151.27741367 32.53032693 155.29101562 32.32382202 C161.64161812 31.9988307 167.99335399 31.76714167 174.34863281 31.55566406 C176.51788559 31.48277982 178.68713606 31.40982714 180.85638428 31.33680725 C182.47984394 31.28235789 182.47984394 31.28235789 184.13610077 31.22680855 C187.45511801 31.11232837 190.77372126 30.98930472 194.09234619 30.86399841 C214.83977197 30.09070485 235.57215221 29.87187353 256.33270264 29.88632202 C260.03109774 29.88866961 263.72920371 29.88079672 267.42755127 29.86196899 C294.72156391 29.72497825 321.92789834 30.35498871 348.77050781 35.88647461 C350.03419189 36.13993652 351.29787598 36.39339844 352.59985352 36.65454102 C365.32667866 39.31264006 377.69026999 42.91003416 389.95800781 47.19897461 C390.83424805 47.50528809 391.71048828 47.81160156 392.61328125 48.12719727 C413.86110798 55.73449461 434.12469386 66.35317158 451.95800781 80.19897461 C452.96734375 80.97885742 453.97667969 81.75874023 455.01660156 82.56225586 C458.73969202 85.53544725 462.27457848 88.43783057 465.46488953 91.99092102 C470.943558 97.8621385 475.09724872 101.13476322 483.27758789 101.57470703 C486.43222704 101.66659387 489.57280213 101.62138235 492.72753906 101.55444336 C494.41998131 101.5542341 496.11242767 101.55774657 497.80485535 101.56477356 C501.33004197 101.56743596 504.85211871 101.53231893 508.37670898 101.46826172 C512.88136536 101.38848176 517.38108213 101.39382847 521.8861742 101.42595959 C525.37225147 101.44324928 528.85720038 101.42096674 532.34311485 101.3863163 C534.00355952 101.37349754 535.66412732 101.37156904 537.3245945 101.38103294 C546.34939307 101.66604053 546.34939307 101.66604053 554.46990967 98.4347229 C556.22155637 96.4390064 557.5740108 94.45691127 558.95800781 92.19897461 C572.55133733 79.38772707 587.66710747 69.77230925 606.82519531 69.98413086 C614.46161971 70.5078258 621.34529246 72.88480794 626.95800781 78.19897461 C630.80240582 83.15622467 632.1114307 86.76621842 632.02050781 92.94897461 C632.00697266 94.14780273 632.00697266 94.14780273 631.99316406 95.37084961 C631.9815625 95.97413086 631.96996094 96.57741211 631.95800781 97.19897461 C633.25738281 97.42584961 634.55675781 97.65272461 635.89550781 97.88647461 C645.28217851 99.98554113 652.61295597 105.18139684 657.95800781 113.19897461 C659.48923608 117.79265942 659.51834033 121.61685926 657.89550781 126.19897461 C652.56241931 134.45666003 645.82936055 138.22216131 636.95800781 142.19897461 C637.16425781 143.18897461 637.37050781 144.17897461 637.58300781 145.19897461 C638.28687785 150.49932929 637.49998736 154.91717738 634.50878906 159.34350586 C628.6027833 166.4970724 622.15397388 169.97183581 612.95800781 171.19897461 C594.89877297 172.91746607 577.07813576 163.88151251 563.14550781 153.01147461 C561.03363444 151.21153463 559.13115778 149.40879857 557.36372375 147.26701355 C553.87638045 143.27505681 551.34876501 140.71386724 545.91894531 140.29077148 C544.05648574 140.29202146 542.1936851 140.3362554 540.33300781 140.41772461 C539.34550537 140.42904419 538.35800293 140.44036377 537.34057617 140.45202637 C534.21101268 140.49652899 531.08616704 140.5968385 527.95800781 140.69897461 C525.82656394 140.73913553 523.69504767 140.77563171 521.56347656 140.80834961 C516.36006561 140.89617525 511.15937373 141.02974026 505.95800781 141.19897461 C506.27917572 141.80945648 506.60034363 142.41993835 506.9312439 143.04891968 C534.54459282 195.65957527 545.96338514 260.60495978 528.55566406 318.36694336 C527.52508855 321.64662433 526.28913836 324.72805274 524.88890839 327.86504078 C522.76685714 333.15361547 522.39938507 337.72279227 522.46594238 343.37394714 C522.46126339 344.34787692 522.45658441 345.32180669 522.45176363 346.32524949 C522.44090174 349.56232385 522.458268 352.79860792 522.47558594 356.03564453 C522.47339823 358.36743396 522.4693987 360.69922229 522.46372986 363.03100586 C522.45518248 368.04061958 522.45892424 373.05001875 522.47215271 378.05962181 C522.490811 385.31881502 522.48503709 392.57780084 522.4715789 399.83699874 C522.45002836 411.6384124 522.4432761 423.43978009 522.44873047 435.24121094 C522.44921142 436.29896183 522.44921142 436.29896183 522.44970208 437.37808142 C522.45241327 443.09596924 522.4558431 448.8138566 522.45930767 454.531744 C522.4623022 459.52279013 522.46501088 464.5138363 522.46728516 469.50488281 C522.46761067 470.20766647 522.46793618 470.91045013 522.46827155 471.63453027 C522.47322827 483.3882061 522.46247735 495.14181831 522.44071341 506.89547426 C522.42738366 514.76926542 522.43323831 522.64273213 522.45407867 530.51650369 C522.46310377 535.42949643 522.45555511 540.34236584 522.44366646 545.25534821 C522.44154683 547.52115363 522.446191 549.78697787 522.45837212 552.05275154 C522.56050545 572.19783332 520.47254381 589.81134966 506.00878906 605.26928711 C477.61716718 631.98445132 435.26153764 634.08074008 398.42333984 633.30834961 C373.39875912 632.51850797 342.00930516 628.64498253 322.22583008 611.71679688 C316.78255433 607.17603317 312.21696219 606.09502552 305.27050781 605.26147461 C280.64319461 601.60357968 257.43480203 592.78777901 242.02050781 572.32397461 C232.18692307 557.16586349 231.65535209 540.73172883 231.76269531 523.30834961 C231.76643347 521.50946206 231.76927664 519.71057245 231.77127075 517.91168213 C231.77884407 513.21655484 231.79843713 508.5215547 231.82067871 503.82647705 C231.84127421 499.01967081 231.85030154 494.21284367 231.86035156 489.40600586 C231.88169003 480.00360678 231.91574823 470.60130134 231.95800781 461.19897461 C230.87003906 461.14999023 229.78207031 461.10100586 228.66113281 461.05053711 C227.17673946 460.97537795 225.69236544 460.89983616 224.20800781 460.82397461 C223.49773437 460.79303711 222.78746094 460.76209961 222.05566406 460.73022461 C215.59994327 460.38744297 209.31507933 459.34756651 202.95800781 458.19897461 C202.96077319 458.80120724 202.96353857 459.40343987 202.96638775 460.02392197 C203.03283876 474.72399541 203.08238098 489.42405994 203.11344433 504.1242485 C203.12886826 511.23335945 203.14987139 518.34236972 203.18432617 525.45141602 C203.21436643 531.65260842 203.23361527 537.85372785 203.2402733 544.05499101 C203.24416101 547.33406396 203.2548126 550.61288139 203.27519798 553.89189911 C203.29711974 557.56567016 203.29996853 561.23901539 203.29858398 564.9128418 C203.30936981 565.98243637 203.32015564 567.05203094 203.33126831 568.15403748 C203.26338657 584.90690189 197.27041873 599.76457362 185.54785156 611.80444336 C168.01281668 628.01707742 144.09483247 634.28851427 120.95800781 637.19897461 C120.27472412 637.2932373 119.59144043 637.3875 118.88745117 637.48461914 C109.89425543 638.5738178 100.81551006 638.44283238 91.77050781 638.44897461 C90.87917145 638.44964935 89.98783508 638.4503241 89.06948853 638.45101929 C55.5136293 638.41070086 20.7478212 633.79745665 -4.94824219 610.31225586 C-7.04199219 608.19897461 -7.04199219 608.19897461 -8.34570312 606.16015625 C-10.52816862 603.63687684 -12.03398721 603.37256324 -15.27636719 602.70678711 C-16.31833252 602.47999268 -17.36029785 602.25319824 -18.43383789 602.01953125 C-20.09612427 601.67523071 -20.09612427 601.67523071 -21.79199219 601.32397461 C-43.61545517 596.43371518 -64.68706426 588.28582268 -77.51074219 568.80834961 C-86.50814043 553.47604852 -87.19508196 538.34448171 -87.15551758 521.02099609 C-87.15523517 519.2857005 -87.15539449 517.55040478 -87.15596008 515.81510925 C-87.15624595 511.12569855 -87.15038328 506.43631364 -87.14338613 501.7469089 C-87.13711751 496.83819635 -87.13654602 491.92948315 -87.13536072 487.02076721 C-87.13225773 477.73499464 -87.12405828 468.44923389 -87.11401123 459.16346651 C-87.102818 448.58788626 -87.09733156 438.01230543 -87.09231579 427.43672073 C-87.08187478 405.69079876 -87.06429538 383.94488743 -87.04199219 362.19897461 C-88.95653602 362.19091992 -90.87108969 362.18518316 -92.78564453 362.18041992 C-93.85181 362.17697571 -94.91797546 362.17353149 -96.01644897 362.16998291 C-110.19630652 362.30585873 -122.54759902 365.35163459 -133.04199219 375.19897461 C-135.36957369 377.69936958 -137.23993737 380.29957916 -139.04199219 383.19897461 C-139.54472656 384.00334961 -140.04746094 384.80772461 -140.56542969 385.63647461 C-149.96893738 402.43868125 -151.14712911 422.92210715 -152.85449219 441.69897461 C-153.09799218 444.24394225 -153.34198965 446.78886233 -153.58642578 449.33374023 C-155.17698709 466.13233785 -156.51062867 482.95031148 -157.79914665 499.77442932 C-158.06153986 503.1991889 -158.32538409 506.62383425 -158.5894928 510.04846191 C-159.38095109 520.33137647 -160.16452711 530.61455949 -160.90787411 540.90107727 C-161.22360351 545.23343645 -161.55131047 549.56483886 -161.88149071 553.89611816 C-162.03316236 555.92273511 -162.17953548 557.94975688 -162.32012367 559.97717285 C-163.51698877 577.19477653 -165.28059602 590.94628508 -178.22949219 603.38647461 C-192.38288857 615.43694565 -212.25596534 616.83742224 -230.10449219 616.01147461 C-245.3350636 614.62530201 -260.514865 610.07298398 -271.13574219 598.62475586 C-279.53970326 587.93037097 -280.34017371 576.70916403 -280.29595947 563.58872986 C-280.29826589 562.09836521 -280.30144363 560.6080017 -280.30541396 559.11764055 C-280.31374789 555.03395885 -280.30964282 550.95037085 -280.30344152 546.86668885 C-280.29891139 542.45650932 -280.3059042 538.04634577 -280.31140137 533.63616943 C-280.32029608 524.99475145 -280.31837152 516.35336821 -280.31257609 507.71194886 C-280.3080532 500.6748358 -280.30744943 493.63773246 -280.30962372 486.60061836 C-280.30993018 485.59764584 -280.31023665 484.59467332 -280.3105524 483.56130769 C-280.31119191 481.52327263 -280.31184033 479.48523757 -280.31249759 477.44720251 C-280.31820285 458.32614919 -280.31164341 439.20511503 -280.30089685 420.08406485 C-280.29199256 403.73702315 -280.29348712 387.39000992 -280.30273438 371.04296875 C-280.31348796 352.02443571 -280.31762054 333.00591956 -280.31150985 313.9873839 C-280.31087283 311.94995376 -280.31024409 309.91252361 -280.30962372 307.87509346 C-280.30931517 306.87291519 -280.30900662 305.87073692 -280.30868872 304.83818961 C-280.3069746 297.8349876 -280.30984957 290.83179644 -280.31458282 283.82859612 C-280.32024984 275.25552986 -280.31855641 266.68250012 -280.30802134 258.10943794 C-280.30283675 253.74917282 -280.30058066 249.38896808 -280.30731964 245.02870369 C-280.33030503 228.73644024 -280.19060929 212.49989391 -279.14300537 196.23658752 C-279.06448656 195.01265665 -278.98596776 193.78872578 -278.90506959 192.52770609 C-276.5324424 159.26995208 -269.24083672 124.44916392 -246.04199219 99.19897461 C-245.37925293 98.47266846 -245.37925293 98.47266846 -244.703125 97.73168945 C-218.18991666 68.99520929 -180.08152064 56.70047679 -142.93261719 48.46069336 C-141.9375415 48.23752441 -140.94246582 48.01435547 -139.91723633 47.78442383 C-137.04199219 47.19897461 -137.04199219 47.19897461 -134.35229492 46.85180664 C-127.16593263 45.85911247 -123.57238658 42.83416181 -118.60449219 37.69897461 C-117.12061113 36.23623378 -115.63623683 34.77399314 -114.15136719 33.31225586 C-113.44431641 32.60278809 -112.73726562 31.89332031 -112.00878906 31.16235352 C-104.09298022 23.26030105 -95.53846407 16.17765144 -86.64208984 9.41821289 C-85.24872086 8.35649719 -83.86873733 7.27725984 -82.49121094 6.19506836 C-58.47716017 -11.84573953 -26.28674752 -14.01198535 0 0 Z " fill="#7D91CE" transform="translate(290.0419921875,164.801025390625)"/>
<path d="M0 0 C2.57688196 1.33335318 4.47186694 2.2222721 7.40332031 2.08178711 C11.52890329 0.65612694 15.58879274 -0.90897692 19.63574219 -2.54125977 C38.60517746 -9.92742635 61.61309138 -9.15432658 80.17285156 -1.00024414 C87.80894234 2.54495839 94.60241349 6.63943452 100.95800781 12.19897461 C101.60640625 12.70557617 102.25480469 13.21217773 102.92285156 13.73413086 C106.80369811 16.86186263 109.3519542 19.82146196 111.91855812 24.12181568 C114.25834559 27.79151705 116.64157293 31.35013068 120.85947418 32.89575577 C126.41420134 33.90008153 132.02383128 33.3890259 137.62207031 33.03100586 C139.49736994 32.96119668 141.37291399 32.89771003 143.24862671 32.84005737 C147.26527422 32.70504031 151.27741367 32.53032693 155.29101562 32.32382202 C161.64161812 31.9988307 167.99335399 31.76714167 174.34863281 31.55566406 C176.51788559 31.48277982 178.68713606 31.40982714 180.85638428 31.33680725 C182.47984394 31.28235789 182.47984394 31.28235789 184.13610077 31.22680855 C187.45511801 31.11232837 190.77372126 30.98930472 194.09234619 30.86399841 C214.83977197 30.09070485 235.57215221 29.87187353 256.33270264 29.88632202 C260.03109774 29.88866961 263.72920371 29.88079672 267.42755127 29.86196899 C294.72156391 29.72497825 321.92789834 30.35498871 348.77050781 35.88647461 C350.03419189 36.13993652 351.29787598 36.39339844 352.59985352 36.65454102 C365.32667866 39.31264006 377.69026999 42.91003416 389.95800781 47.19897461 C390.83424805 47.50528809 391.71048828 47.81160156 392.61328125 48.12719727 C413.86110798 55.73449461 434.12469386 66.35317158 451.95800781 80.19897461 C452.96734375 80.97885742 453.97667969 81.75874023 455.01660156 82.56225586 C458.73969202 85.53544725 462.27457848 88.43783057 465.46488953 91.99092102 C470.943558 97.8621385 475.09724872 101.13476322 483.27758789 101.57470703 C486.43222704 101.66659387 489.57280213 101.62138235 492.72753906 101.55444336 C494.41998131 101.5542341 496.11242767 101.55774657 497.80485535 101.56477356 C501.33004197 101.56743596 504.85211871 101.53231893 508.37670898 101.46826172 C512.88136536 101.38848176 517.38108213 101.39382847 521.8861742 101.42595959 C525.37225147 101.44324928 528.85720038 101.42096674 532.34311485 101.3863163 C534.00355952 101.37349754 535.66412732 101.37156904 537.3245945 101.38103294 C546.34939307 101.66604053 546.34939307 101.66604053 554.46990967 98.4347229 C556.22155637 96.4390064 557.5740108 94.45691127 558.95800781 92.19897461 C572.55133733 79.38772707 587.66710747 69.77230925 606.82519531 69.98413086 C614.46161971 70.5078258 621.34529246 72.88480794 626.95800781 78.19897461 C630.80240582 83.15622467 632.1114307 86.76621842 632.02050781 92.94897461 C632.00697266 94.14780273 632.00697266 94.14780273 631.99316406 95.37084961 C631.9815625 95.97413086 631.96996094 96.57741211 631.95800781 97.19897461 C633.25738281 97.42584961 634.55675781 97.65272461 635.89550781 97.88647461 C645.28217851 99.98554113 652.61295597 105.18139684 657.95800781 113.19897461 C659.48923608 117.79265942 659.51834033 121.61685926 657.89550781 126.19897461 C652.56241931 134.45666003 645.82936055 138.22216131 636.95800781 142.19897461 C637.16425781 143.18897461 637.37050781 144.17897461 637.58300781 145.19897461 C638.28687785 150.49932929 637.49998736 154.91717738 634.50878906 159.34350586 C628.6027833 166.4970724 622.15397388 169.97183581 612.95800781 171.19897461 C594.89877297 172.91746607 577.07813576 163.88151251 563.14550781 153.01147461 C561.03363444 151.21153463 559.13115778 149.40879857 557.36372375 147.26701355 C553.87638045 143.27505681 551.34876501 140.71386724 545.91894531 140.29077148 C544.05648574 140.29202146 542.1936851 140.3362554 540.33300781 140.41772461 C539.34550537 140.42904419 538.35800293 140.44036377 537.34057617 140.45202637 C534.21101268 140.49652899 531.08616704 140.5968385 527.95800781 140.69897461 C525.82656394 140.73913553 523.69504767 140.77563171 521.56347656 140.80834961 C516.36006561 140.89617525 511.15937373 141.02974026 505.95800781 141.19897461 C506.27917572 141.80945648 506.60034363 142.41993835 506.9312439 143.04891968 C534.54459282 195.65957527 545.96338514 260.60495978 528.55566406 318.36694336 C527.52508855 321.64662433 526.28913836 324.72805274 524.88890839 327.86504078 C522.76685714 333.15361547 522.39938507 337.72279227 522.46594238 343.37394714 C522.46126339 344.34787692 522.45658441 345.32180669 522.45176363 346.32524949 C522.44090174 349.56232385 522.458268 352.79860792 522.47558594 356.03564453 C522.47339823 358.36743396 522.4693987 360.69922229 522.46372986 363.03100586 C522.45518248 368.04061958 522.45892424 373.05001875 522.47215271 378.05962181 C522.490811 385.31881502 522.48503709 392.57780084 522.4715789 399.83699874 C522.45002836 411.6384124 522.4432761 423.43978009 522.44873047 435.24121094 C522.44921142 436.29896183 522.44921142 436.29896183 522.44970208 437.37808142 C522.45241327 443.09596924 522.4558431 448.8138566 522.45930767 454.531744 C522.4623022 459.52279013 522.46501088 464.5138363 522.46728516 469.50488281 C522.46761067 470.20766647 522.46793618 470.91045013 522.46827155 471.63453027 C522.47322827 483.3882061 522.46247735 495.14181831 522.44071341 506.89547426 C522.42738366 514.76926542 522.43323831 522.64273213 522.45407867 530.51650369 C522.46310377 535.42949643 522.45555511 540.34236584 522.44366646 545.25534821 C522.44154683 547.52115363 522.446191 549.78697787 522.45837212 552.05275154 C522.56050545 572.19783332 520.47254381 589.81134966 506.00878906 605.26928711 C477.61716718 631.98445132 435.26153764 634.08074008 398.42333984 633.30834961 C373.39875912 632.51850797 342.00930516 628.64498253 322.22583008 611.71679688 C316.78255433 607.17603317 312.21696219 606.09502552 305.27050781 605.26147461 C280.64319461 601.60357968 257.43480203 592.78777901 242.02050781 572.32397461 C232.18692307 557.16586349 231.65535209 540.73172883 231.76269531 523.30834961 C231.76643347 521.50946206 231.76927664 519.71057245 231.77127075 517.91168213 C231.77884407 513.21655484 231.79843713 508.5215547 231.82067871 503.82647705 C231.84127421 499.01967081 231.85030154 494.21284367 231.86035156 489.40600586 C231.88169003 480.00360678 231.91574823 470.60130134 231.95800781 461.19897461 C230.87003906 461.14999023 229.78207031 461.10100586 228.66113281 461.05053711 C227.17673946 460.97537795 225.69236544 460.89983616 224.20800781 460.82397461 C223.49773437 460.79303711 222.78746094 460.76209961 222.05566406 460.73022461 C215.59994327 460.38744297 209.31507933 459.34756651 202.95800781 458.19897461 C202.96077319 458.80120724 202.96353857 459.40343987 202.96638775 460.02392197 C203.03283876 474.72399541 203.08238098 489.42405994 203.11344433 504.1242485 C203.12886826 511.23335945 203.14987139 518.34236972 203.18432617 525.45141602 C203.21436643 531.65260842 203.23361527 537.85372785 203.2402733 544.05499101 C203.24416101 547.33406396 203.2548126 550.61288139 203.27519798 553.89189911 C203.29711974 557.56567016 203.29996853 561.23901539 203.29858398 564.9128418 C203.30936981 565.98243637 203.32015564 567.05203094 203.33126831 568.15403748 C203.26338657 584.90690189 197.27041873 599.76457362 185.54785156 611.80444336 C168.01281668 628.01707742 144.09483247 634.28851427 120.95800781 637.19897461 C120.27472412 637.2932373 119.59144043 637.3875 118.88745117 637.48461914 C109.89425543 638.5738178 100.81551006 638.44283238 91.77050781 638.44897461 C90.87917145 638.44964935 89.98783508 638.4503241 89.06948853 638.45101929 C55.5136293 638.41070086 20.7478212 633.79745665 -4.94824219 610.31225586 C-7.04199219 608.19897461 -7.04199219 608.19897461 -8.34570312 606.16015625 C-10.52816862 603.63687684 -12.03398721 603.37256324 -15.27636719 602.70678711 C-16.31833252 602.47999268 -17.36029785 602.25319824 -18.43383789 602.01953125 C-20.09612427 601.67523071 -20.09612427 601.67523071 -21.79199219 601.32397461 C-43.61545517 596.43371518 -64.68706426 588.28582268 -77.51074219 568.80834961 C-86.50814043 553.47604852 -87.19508196 538.34448171 -87.15551758 521.02099609 C-87.15523517 519.2857005 -87.15539449 517.55040478 -87.15596008 515.81510925 C-87.15624595 511.12569855 -87.15038328 506.43631364 -87.14338613 501.7469089 C-87.13711751 496.83819635 -87.13654602 491.92948315 -87.13536072 487.02076721 C-87.13225773 477.73499464 -87.12405828 468.44923389 -87.11401123 459.16346651 C-87.102818 448.58788626 -87.09733156 438.01230543 -87.09231579 427.43672073 C-87.08187478 405.69079876 -87.06429538 383.94488743 -87.04199219 362.19897461 C-88.95653602 362.19091992 -90.87108969 362.18518316 -92.78564453 362.18041992 C-93.85181 362.17697571 -94.91797546 362.17353149 -96.01644897 362.16998291 C-110.19630652 362.30585873 -122.54759902 365.35163459 -133.04199219 375.19897461 C-135.36957369 377.69936958 -137.23993737 380.29957916 -139.04199219 383.19897461 C-139.54472656 384.00334961 -140.04746094 384.80772461 -140.56542969 385.63647461 C-149.96893738 402.43868125 -151.14712911 422.92210715 -152.85449219 441.69897461 C-153.09799218 444.24394225 -153.34198965 446.78886233 -153.58642578 449.33374023 C-155.17698709 466.13233785 -156.51062867 482.95031148 -157.79914665 499.77442932 C-158.06153986 503.1991889 -158.32538409 506.62383425 -158.5894928 510.04846191 C-159.38095109 520.33137647 -160.16452711 530.61455949 -160.90787411 540.90107727 C-161.22360351 545.23343645 -161.55131047 549.56483886 -161.88149071 553.89611816 C-162.03316236 555.92273511 -162.17953548 557.94975688 -162.32012367 559.97717285 C-163.51698877 577.19477653 -165.28059602 590.94628508 -178.22949219 603.38647461 C-192.38288857 615.43694565 -212.25596534 616.83742224 -230.10449219 616.01147461 C-245.3350636 614.62530201 -260.514865 610.07298398 -271.13574219 598.62475586 C-279.53970326 587.93037097 -280.34017371 576.70916403 -280.29595947 563.58872986 C-280.29826589 562.09836521 -280.30144363 560.6080017 -280.30541396 559.11764055 C-280.31374789 555.03395885 -280.30964282 550.95037085 -280.30344152 546.86668885 C-280.29891139 542.45650932 -280.3059042 538.04634577 -280.31140137 533.63616943 C-280.32029608 524.99475145 -280.31837152 516.35336821 -280.31257609 507.71194886 C-280.3080532 500.6748358 -280.30744943 493.63773246 -280.30962372 486.60061836 C-280.30993018 485.59764584 -280.31023665 484.59467332 -280.3105524 483.56130769 C-280.31119191 481.52327263 -280.31184033 479.48523757 -280.31249759 477.44720251 C-280.31820285 458.32614919 -280.31164341 439.20511503 -280.30089685 420.08406485 C-280.29199256 403.73702315 -280.29348712 387.39000992 -280.30273438 371.04296875 C-280.31348796 352.02443571 -280.31762054 333.00591956 -280.31150985 313.9873839 C-280.31087283 311.94995376 -280.31024409 309.91252361 -280.30962372 307.87509346 C-280.30931517 306.87291519 -280.30900662 305.87073692 -280.30868872 304.83818961 C-280.3069746 297.8349876 -280.30984957 290.83179644 -280.31458282 283.82859612 C-280.32024984 275.25552986 -280.31855641 266.68250012 -280.30802134 258.10943794 C-280.30283675 253.74917282 -280.30058066 249.38896808 -280.30731964 245.02870369 C-280.33030503 228.73644024 -280.19060929 212.49989391 -279.14300537 196.23658752 C-279.06448656 195.01265665 -278.98596776 193.78872578 -278.90506959 192.52770609 C-276.5324424 159.26995208 -269.24083672 124.44916392 -246.04199219 99.19897461 C-245.37925293 98.47266846 -245.37925293 98.47266846 -244.703125 97.73168945 C-218.18991666 68.99520929 -180.08152064 56.70047679 -142.93261719 48.46069336 C-141.9375415 48.23752441 -140.94246582 48.01435547 -139.91723633 47.78442383 C-137.04199219 47.19897461 -137.04199219 47.19897461 -134.35229492 46.85180664 C-127.16593263 45.85911247 -123.57238658 42.83416181 -118.60449219 37.69897461 C-117.12061113 36.23623378 -115.63623683 34.77399314 -114.15136719 33.31225586 C-113.44431641 32.60278809 -112.73726562 31.89332031 -112.00878906 31.16235352 C-104.09298022 23.26030105 -95.53846407 16.17765144 -86.64208984 9.41821289 C-85.24872086 8.35649719 -83.86873733 7.27725984 -82.49121094 6.19506836 C-58.47716017 -11.84573953 -26.28674752 -14.01198535 0 0 Z M25.95800781 11.19897461 C24.90613281 11.55475586 23.85425781 11.91053711 22.77050781 12.27709961 C-8.47897005 23.85614721 -38.15624496 43.67620991 -65.46386719 62.55444336 C-72.91186623 67.59694001 -72.91186623 67.59694001 -77.04199219 67.88647461 C-80.04199219 67.19897461 -80.04199219 67.19897461 -81.97949219 65.63647461 C-83.39107024 62.39814849 -83.24344566 59.69083482 -83.04199219 56.19897461 C-132.59979278 55.1065316 -193.27427416 70.5809922 -229.72949219 105.44897461 C-248.01421481 124.42468965 -256.47824715 147.49262202 -260.72949219 173.13647461 C-260.9321167 174.34255371 -261.13474121 175.54863281 -261.34350586 176.79125977 C-265.59395776 204.01046572 -265.32781576 231.27457647 -265.27756 258.74259472 C-265.2688565 264.65556464 -265.27161727 270.56853164 -265.27272034 276.48150635 C-265.2728569 289.15183244 -265.25802777 301.82211255 -265.24003601 314.49242401 C-265.22905597 322.32341835 -265.22177563 330.15441347 -265.21520996 337.9854126 C-265.18759512 369.96432749 -265.13501446 401.94314067 -265.06406009 433.92198741 C-265.04741286 441.48753967 -265.03281518 449.05309296 -265.01983643 456.61865234 C-264.98357759 477.47881404 -264.92556412 498.33861667 -264.8206256 519.1985513 C-264.79660272 524.14125279 -264.78217204 529.08392504 -264.77182007 534.02667236 C-264.75800142 540.50466498 -264.72368995 546.98230332 -264.67387199 553.46013641 C-264.65915241 555.75738996 -264.65094756 558.05469685 -264.65005684 560.35199738 C-264.64772383 563.41782057 -264.62110535 566.48247448 -264.58789062 569.5480957 C-264.59292193 570.42088732 -264.59795324 571.29367893 -264.60313702 572.19291878 C-264.48459926 579.12756637 -262.48661653 584.23638036 -258.06933594 589.58959961 C-245.40175319 600.8601966 -229.96944612 600.92229187 -213.81103516 600.37817383 C-201.90660987 599.60777635 -192.20805415 596.09914826 -184.16699219 587.13647461 C-180.97276186 582.72092092 -179.82208129 578.99117693 -179.43530273 573.58496094 C-179.35129211 572.46899033 -179.26728149 571.35301971 -179.1807251 570.20323181 C-179.09756042 568.99139725 -179.01439575 567.77956268 -178.92871094 566.53100586 C-178.78369635 564.56996396 -178.63867508 562.60892254 -178.49339104 560.64790058 C-178.33945703 558.55117029 -178.18934633 556.45419644 -178.04025269 554.3571167 C-177.56789219 547.72353282 -177.06841423 541.09196225 -176.57107735 534.46021271 C-176.40041192 532.18231826 -176.230583 529.90436237 -176.06077576 527.62640381 C-174.27924632 503.79863062 -172.20808214 479.99465157 -170.04199219 456.19897461 C-169.95111328 455.19809814 -169.86023438 454.19722168 -169.76660156 453.16601562 C-163.26636195 381.89468402 -163.26636195 381.89468402 -141.04199219 361.19897461 C-127.79270912 350.91471107 -112.9560568 347.56132089 -96.51220703 346.91674805 C-83.08719123 346.35577312 -74.76090139 342.67562361 -65.04199219 333.19897461 C-46.85398216 312.92140356 -38.09424907 282.63627198 -38.90136719 255.74194336 C-38.94777344 254.90276367 -38.99417969 254.06358398 -39.04199219 253.19897461 C-39.79222656 253.06362305 -40.54246094 252.92827148 -41.31542969 252.78881836 C-49.869394 250.98968481 -57.00687515 247.90511998 -62.80371094 241.14428711 C-64.37540303 238.67519355 -64.35267577 237.07279776 -64.04199219 234.19897461 C-63.04199219 233.19897461 -63.04199219 233.19897461 -60.41699219 232.69897461 C-55.98632409 233.35536988 -54.7065994 235.26350072 -51.74121094 238.44116211 C-47.68272174 242.63959921 -43.82238629 243.40940734 -38.16699219 243.63647461 C-31.68339705 243.44389258 -27.08115916 242.11798847 -22.36230469 237.58569336 C-19.89054817 234.81265308 -17.87177255 231.95045705 -15.97949219 228.76147461 C-14.04199219 226.19897461 -14.04199219 226.19897461 -11.41699219 225.69897461 C-9.04199219 226.19897461 -9.04199219 226.19897461 -7.04199219 228.19897461 C-7.44918355 235.27020029 -11.40538346 240.11755302 -16.04199219 245.19897461 C-19.21773762 247.5750054 -22.48055546 249.46459464 -26.04199219 251.19897461 C-26.70199219 251.52897461 -27.36199219 251.85897461 -28.04199219 252.19897461 C-28.44505555 254.01764857 -28.44505555 254.01764857 -28.53417969 256.22241211 C-28.59694092 257.06868164 -28.65970215 257.91495117 -28.72436523 258.78686523 C-28.78793213 259.70661133 -28.85149902 260.62635742 -28.91699219 261.57397461 C-31.59958372 293.49383022 -41.31073122 323.7315086 -65.04199219 346.19897461 C-66.04402401 347.19693865 -67.0443842 348.1965883 -68.04199219 349.19897461 C-61.15738767 351.55103576 -54.22233847 353.63197638 -47.22949219 355.63647461 C-39.76419882 357.78981521 -32.34767804 359.98649833 -25.01855469 362.57006836 C-23.07005093 363.3000425 -23.07005093 363.3000425 -21.04199219 363.19897461 C-20.77386719 362.08522461 -20.50574219 360.97147461 -20.22949219 359.82397461 C-19.04199219 356.19897461 -19.04199219 356.19897461 -16.04199219 354.19897461 C-12.63159459 353.98582476 -10.2966742 354.11408061 -7.04199219 355.19897461 C-6.71199219 416.57897461 -6.38199219 477.95897461 -6.04199219 541.19897461 C-3.21754907 538.37453149 -1.14813906 535.5797353 1.14550781 532.32397461 C4.71844944 527.48590297 8.05502955 523.09082228 13.95800781 521.19897461 C15.95668405 521.11513298 17.95757541 521.07648456 19.95800781 521.07397461 C23.97469831 520.92745382 25.40935762 520.76066572 28.25878906 517.84350586 C29.59605635 515.87785277 30.90001477 513.88910762 32.16894531 511.87866211 C35.07495815 507.52598786 37.90589738 505.81271421 43.11425781 504.76538086 C47.48446634 504.3987024 50.45119314 505.10124973 54.08300781 507.57397461 C63.37243528 515.50217904 69.14430505 527.75786631 72.95800781 539.19897461 C74.50488281 539.78678711 74.50488281 539.78678711 76.08300781 540.38647461 C84.44406867 543.75483655 88.20616845 551.91823671 91.61035156 559.76147461 C93.72656034 565.15934048 95.46097615 570.59950042 96.95800781 576.19897461 C97.18488281 577.01624023 97.41175781 577.83350586 97.64550781 578.67553711 C100.62484866 591.04807758 100.33513829 604.24258856 93.68457031 615.32006836 C91.6956503 618.21906996 89.46892548 620.75355914 86.95800781 623.19897461 C117.44054476 623.56415642 150.87409774 620.94759278 174.95800781 600.19897461 C184.95557674 588.01826308 187.26064167 576.38352949 187.22924805 560.9519043 C187.23364117 559.51880601 187.23894545 558.08571027 187.24508667 556.65261841 C187.25653778 553.58065991 187.26204243 550.50876995 187.26296806 547.43679047 C187.26491614 542.57907389 187.28300696 537.7214985 187.3037262 532.86383057 C187.35280176 520.80505246 187.38383401 508.74623644 187.4050293 496.68737793 C187.42154679 487.30110969 187.44432162 477.91496365 187.48805004 468.52877736 C187.50983464 463.69941793 187.5178837 458.87029065 187.51565731 454.04088545 C187.51732242 451.04041105 187.5313596 448.04008885 187.54887009 445.03966904 C187.55447468 443.64810415 187.55495013 442.25650777 187.54993248 440.86494064 C187.54380338 438.96624986 187.55775361 437.06752582 187.57273865 435.16888428 C187.57474998 434.10630779 187.5767613 433.04373131 187.57883358 431.94895554 C188.0089757 428.82932737 188.79023132 427.44937845 190.95800781 425.19897461 C192.89550781 424.70288086 192.89550781 424.70288086 194.95800781 424.76147461 C195.97894531 424.7634082 195.97894531 424.7634082 197.02050781 424.76538086 C199.6673882 425.35772708 200.44875955 425.9191434 201.95800781 428.19897461 C202.33445629 430.82836666 202.55933869 433.24969933 202.64550781 435.88647461 C202.67966797 436.58836914 202.71382813 437.29026367 202.74902344 438.01342773 C202.83130728 439.74138848 202.89634021 441.47015533 202.95800781 443.19897461 C233.0533358 446.8160327 268.48009896 449.82851787 297.95800781 441.19897461 C298.00699219 440.35592773 298.05597656 439.51288086 298.10644531 438.64428711 C298.18121094 437.54858398 298.25597656 436.45288086 298.33300781 435.32397461 C298.40261719 434.23342773 298.47222656 433.14288086 298.54394531 432.01928711 C298.95800781 429.19897461 298.95800781 429.19897461 300.95800781 427.19897461 C303.34082031 426.78491211 303.34082031 426.78491211 306.08300781 426.57397461 C306.99308594 426.49920898 307.90316406 426.42444336 308.84082031 426.34741211 C309.53949219 426.29842773 310.23816406 426.24944336 310.95800781 426.19897461 C312.61388872 429.11087932 313.21179466 431.2114609 313.23648071 434.55230713 C313.25322594 435.84792068 313.25322594 435.84792068 313.27030945 437.16970825 C313.27246964 438.10910248 313.27462982 439.0484967 313.27685547 440.01635742 C313.28690109 441.01180573 313.29694672 442.00725403 313.30729675 443.03286743 C313.33818327 446.32260563 313.35517925 449.61226223 313.37207031 452.90209961 C313.39077754 455.18325505 313.41035062 457.46440355 313.43075562 459.74554443 C313.48212973 465.74930731 313.5217273 471.75309264 313.55889893 477.75695801 C313.59890541 483.88352028 313.65001307 490.00998874 313.70019531 496.13647461 C313.79701716 508.1572421 313.881402 520.17806249 313.95800781 532.19897461 C317.37824983 531.05889394 317.75714262 530.38845277 319.70800781 527.51147461 C323.57029836 522.17327155 328.32317616 516.77869643 334.95800781 515.19897461 C335.63863281 515.26729492 336.31925781 515.33561523 337.02050781 515.40600586 C339.53314335 515.65642055 341.48466789 515.74907952 343.95800781 515.19897461 C346.09775418 513.17859426 347.6202334 511.01984383 349.28613281 508.59741211 C352.15947942 504.47536815 355.27022514 501.10300278 360.11816406 499.47241211 C364.99498878 498.61917691 368.79024315 499.22369029 373.05957031 501.73803711 C381.78835435 508.45524952 387.392492 520.81431341 390.95410156 531.06616211 C392.18613811 533.68364053 393.04557776 534.07298346 395.70800781 535.07397461 C405.09345605 539.43693974 408.65423463 548.57401606 412.13085938 557.81713867 C417.3946005 572.97447586 421.46680456 589.99483252 415.41894531 605.47631836 C413.22039749 609.57361203 410.58723099 613.36795514 407.95800781 617.19897461 C436.68714863 617.96818818 468.94868185 615.71336544 492.02441406 596.47631836 C501.64890595 587.35072022 505.99083939 575.87412934 506.39993715 562.74234521 C506.47045821 557.7585489 506.44733939 552.77745731 506.41210938 547.79345703 C506.41097944 545.54526286 506.4116176 543.29706722 506.41387939 541.0488739 C506.41502176 534.97945822 506.39158977 528.91036211 506.36358356 522.84102035 C506.33849014 516.48560844 506.33622166 510.1301883 506.33148193 503.7747345 C506.32048289 493.11847798 506.29553931 482.46234691 506.25976562 471.80615234 C506.22297799 460.83643165 506.19469942 449.86674269 506.17773438 438.89697266 C506.17668348 438.21935307 506.17563259 437.54173348 506.17454985 436.84357997 C506.16932922 433.44373017 506.1642745 430.04388015 506.15930223 426.64402997 C506.11792111 398.49559727 506.04724397 370.34729322 505.95800781 342.19897461 C503.64800781 343.18897461 501.33800781 344.17897461 498.95800781 345.19897461 C499.52648437 344.20381836 500.09496094 343.20866211 500.68066406 342.18334961 C524.98367636 298.63670782 524.96263077 245.48273505 511.95800781 198.19897461 C496.36067914 145.55696474 465.76513059 102.77624139 417.06542969 76.16479492 C406.74234396 70.63267975 396.01832647 66.21276078 385.09179688 62.02270508 C383.38087456 61.36221859 381.67945105 60.67714895 379.98144531 59.98413086 C371.405686 56.59466408 362.32684636 54.79357555 353.35571289 52.76025391 C351.28568481 52.27568059 349.22944103 51.73290443 347.17675781 51.17944336 C341.25435937 49.68749031 335.18795837 48.96893375 329.14550781 48.13647461 C327.36370117 47.87640625 327.36370117 47.87640625 325.54589844 47.61108398 C305.10154099 44.77128766 284.5170685 44.99988981 263.9186554 45.01049805 C261.49935695 45.01148322 259.08006486 45.01048618 256.6607666 45.00927734 C213.41561361 45.00130742 170.18662905 46.09801433 126.95800781 47.19897461 C127.42764981 48.62648803 127.89891398 50.05346782 128.37084961 51.48022461 C128.63310837 52.27493164 128.89536713 53.06963867 129.16557312 53.88842773 C130.24698059 57.04154898 131.51901472 60.10988972 132.77050781 63.19897461 C148.07722459 103.0668472 148.37963666 147.12041593 147.95800781 189.19897461 C148.74336914 189.26890625 149.52873047 189.33883789 150.33789062 189.41088867 C153.96278179 189.74216729 157.58522188 190.09544319 161.20800781 190.44897461 C162.44292969 190.55854492 163.67785156 190.66811523 164.95019531 190.78100586 C177.19772706 192.00575903 190.16007313 194.5493971 198.70410156 204.16381836 C207.60999515 216.44551201 208.66487345 230.83084539 206.64453125 245.47045898 C203.4216977 263.62053439 193.76594784 279.17483141 178.95800781 290.19897461 C165.52614058 298.31800234 151.58034623 301.31898121 136.04003906 301.33959961 C134.35708259 301.35790643 132.67413945 301.37747472 130.99121094 301.39819336 C128.37094009 301.42725549 125.75154671 301.44897812 123.13110352 301.44946289 C120.57914682 301.4527966 118.02915398 301.48730013 115.47753906 301.52709961 C114.30708794 301.51649506 114.30708794 301.51649506 113.11299133 301.50567627 C109.28517375 301.59121409 107.18470782 302.03704875 104.04516602 304.27954102 C101.56731308 307.74546281 100.8437747 310.40386088 100.04394531 314.58178711 C99.90276276 315.27787079 99.7615802 315.97395447 99.61611938 316.69113159 C99.17029474 318.89894988 98.74975295 321.11049844 98.33300781 323.32397461 C97.90645918 325.54385693 97.47432883 327.76215252 97.0284729 329.97824097 C96.6262746 331.98295038 96.24353385 333.99153433 95.86181641 336.00024414 C94.55462429 340.62661667 94.55462429 340.62661667 91.95800781 342.19897461 C89.1706543 342.57128906 89.1706543 342.57128906 85.82910156 342.56225586 C84.62962891 342.56161133 83.43015625 342.5609668 82.19433594 342.56030273 C80.94072266 342.54418945 79.68710937 342.52807617 78.39550781 342.51147461 C76.50928711 342.51630859 76.50928711 342.51630859 74.58496094 342.52124023 C65.22488839 342.46585519 65.22488839 342.46585519 62.95800781 340.19897461 C63.40403603 332.71646671 64.94546637 325.36795588 66.33300781 318.01147461 C66.66691528 316.2209668 66.66691528 316.2209668 67.00756836 314.39428711 C68.37785751 307.101983 69.82433829 299.83911969 71.47753906 292.60522461 C72.0559128 290.11761202 72.0559128 290.11761202 71.95800781 287.19897461 C58.83152234 288.76263119 47.17042903 291.55291772 38.52050781 302.19897461 C36.15671848 306.77239309 36.42193281 311.95175276 36.32910156 316.99194336 C35.93190548 320.42455368 35.44322279 321.83456869 32.95800781 324.19897461 C29.11090893 324.75855263 26.94681477 324.93351692 23.77050781 322.57397461 C20.17013397 317.85624337 21.27254863 311.82911371 21.95800781 306.19897461 C23.88444016 299.55164085 26.66093416 294.57031668 30.95800781 289.19897461 C30.95800781 288.53897461 30.95800781 287.87897461 30.95800781 287.19897461 C31.52519531 286.92827148 32.09238281 286.65756836 32.67675781 286.37866211 C35.04135893 285.1558718 37.21976073 283.76391357 39.45800781 282.32397461 C48.07276479 277.18009073 57.01251201 275.13542697 66.77050781 273.32397461 C86.21181403 269.6375501 103.83139668 261.15698417 115.33740234 244.48022461 C120.42960504 236.81354881 123.95867053 228.87666889 126.95800781 220.19897461 C127.26351563 219.33530273 127.56902344 218.47163086 127.88378906 217.58178711 C128.74930937 214.803245 129.37908386 212.05224264 129.95800781 209.19897461 C130.09335937 208.53833008 130.22871094 207.87768555 130.36816406 207.19702148 C139.85389683 158.3583163 134.07967456 96.67166701 111.95800781 52.19897461 C111.43078125 51.12905273 110.90355469 50.05913086 110.36035156 48.95678711 C107.17395115 42.82190418 103.37719598 37.50004068 98.95800781 32.19897461 C98.44882812 31.5325293 97.93964844 30.86608398 97.41503906 30.17944336 C92.30739793 23.78543335 85.79615209 19.52951404 78.95800781 15.19897461 C78.26835937 14.75295898 77.57871094 14.30694336 76.86816406 13.84741211 C62.65435266 5.69857494 41.0738372 5.972757 25.95800781 11.19897461 Z " fill="#3C3957" transform="translate(290.0419921875,164.801025390625)"/>
<path d="M0 0 C2.05071215 -0.01184963 4.09836413 -0.06101102 6.1484375 -0.11157227 C13.76906868 -0.15282568 19.55856936 0.06983295 25.3203125 5.42553711 C28.56229509 9.2950002 29.17626064 13.48552538 29.3203125 18.42553711 C28.9215828 22.10155429 28.20587616 25.68408208 27.4453125 29.30053711 C27.25839844 30.24928711 27.07148437 31.19803711 26.87890625 32.17553711 C25.49146205 39.083238 25.49146205 39.083238 24.3203125 41.42553711 C25.62742187 41.40233398 26.93453125 41.37913086 28.28125 41.35522461 C37.28135353 41.24506422 46.17989109 41.29388262 55.1328125 42.30053711 C55.84163574 42.37900879 56.55045898 42.45748047 57.28076172 42.53833008 C68.11346155 43.87668356 81.235503 46.56952523 88.3203125 55.42553711 C89.0009375 56.18866211 89.6815625 56.95178711 90.3828125 57.73803711 C93.82063729 62.50663279 96.58221136 67.52072801 97.3203125 73.42553711 C98.69580189 69.10257045 99.53375866 64.98949886 100.1328125 60.48803711 C101.19359307 54.05906395 102.90699686 49.20768714 108.06492615 45.00352478 C115.08216314 40.62933298 121.79388374 40.74339049 129.85546875 40.86694336 C131.2615871 40.8712074 132.66771255 40.8735236 134.07383728 40.87400818 C137.01333857 40.88014672 139.95206992 40.90269435 142.89135742 40.93847656 C146.61028157 40.98345214 150.32850596 40.99849015 154.04767704 41.00221348 C156.95214911 41.00670377 159.85648228 41.02211774 162.76089287 41.04109001 C164.78329164 41.05398322 166.80571731 41.06242105 168.82814026 41.07069397 C189.36434531 41.32899208 211.65092471 43.76532487 227.40625 58.29663086 C238.6041077 70.75139096 241.22250941 85.77421191 240.6953125 101.91772461 C239.72644316 119.42398246 233.23565194 136.39239138 221.3203125 149.42553711 C220.51980469 150.31756836 219.71929688 151.20959961 218.89453125 152.12866211 C202.66570027 169.32041939 181.98957471 175.65209106 158.75439453 176.37573242 C150.27771331 176.54917705 141.79791782 176.4979667 133.3203125 176.42553711 C133.22234375 177.25053711 133.124375 178.07553711 133.0234375 178.92553711 C132.14852315 185.68349625 131.03034344 192.30004573 129.4453125 198.92553711 C129.29610352 199.58295898 129.14689453 200.24038086 128.99316406 200.91772461 C127.71333195 206.04752203 125.73794231 210.45140986 121.57421875 213.85131836 C114.34100288 217.6433276 107.94281257 217.6080009 99.9453125 217.61303711 C98.92953125 217.6252832 97.91375 217.6375293 96.8671875 217.65014648 C84.0697496 217.67507656 84.0697496 217.67507656 78.5703125 213.17553711 C74.9153419 208.70835082 73.01253986 205.58111999 73.3828125 199.73803711 C74.15620857 193.38388534 75.55821272 187.13142327 76.94750977 180.88769531 C77.12338623 180.09580811 77.2992627 179.3039209 77.48046875 178.48803711 C77.64168213 177.77776367 77.80289551 177.06749023 77.96899414 176.33569336 C78.41075614 174.25748436 78.41075614 174.25748436 78.3203125 171.42553711 C77.3921875 172.06491211 76.4640625 172.70428711 75.5078125 173.36303711 C69.17537001 177.4604999 62.83346241 176.64610205 55.5078125 176.67553711 C53.60032227 176.70647461 53.60032227 176.70647461 51.65429688 176.73803711 C50.42388672 176.74319336 49.19347656 176.74834961 47.92578125 176.75366211 C46.80324951 176.76300781 45.68071777 176.77235352 44.52416992 176.78198242 C39.54930533 176.22850362 35.41476123 174.09516238 31.9453125 170.48803711 C28.11069005 165.52108832 28.86710655 160.44296196 29.3203125 154.42553711 C30.0206053 149.56899268 30.99617545 144.7882641 32.0078125 139.98803711 C32.56177808 137.26263135 33.10675326 134.53544256 33.65234375 131.80834961 C33.79140137 131.11863571 33.93045898 130.42892181 34.07373047 129.7183075 C35.56568586 122.28692658 36.89904772 114.83072187 38.1953125 107.36303711 C38.41018311 106.15139893 38.62505371 104.93976074 38.84643555 103.69140625 C39.04148682 102.56081787 39.23653809 101.43022949 39.4375 100.26538086 C39.60878418 99.27916748 39.78006836 98.2929541 39.95654297 97.27685547 C40.44686615 93.91264892 40.44686615 93.91264892 40.3203125 88.42553711 C32.0703125 88.09553711 23.8203125 87.76553711 15.3203125 87.42553711 C14.6603125 91.38553711 14.0003125 95.34553711 13.3203125 99.42553711 C12.64655875 103.05880203 11.96328617 106.68836231 11.26171875 110.31616211 C11.07189926 111.30445007 10.88207977 112.29273804 10.68650818 113.31097412 C10.08665561 116.43276231 9.48482938 119.55416565 8.8828125 122.67553711 C8.28646744 125.77381748 7.69054583 128.87217843 7.09515381 131.97064209 C6.7088818 133.97869891 6.32156738 135.98655552 5.9331665 137.99420166 C5.07737624 142.42733439 4.23473655 146.86102747 3.45019531 151.30737305 C3.2532029 152.41009552 3.2532029 152.41009552 3.05223083 153.53509521 C2.71170401 155.45458455 2.37952299 157.37554945 2.0480957 159.29663086 C0.50027014 165.95108655 -2.95033425 170.7014575 -8.6796875 174.42553711 C-14.63638929 177.26434782 -20.57877526 176.75522371 -27.0546875 176.73803711 C-28.26125 176.75415039 -29.4678125 176.77026367 -30.7109375 176.78686523 C-43.85685336 176.79408827 -43.85685336 176.79408827 -49.421875 171.89038086 C-53.95344668 165.78057215 -54.10376192 161.94053032 -53.6796875 154.42553711 C-53.1733768 151.3524513 -52.47125566 148.4433907 -51.6796875 145.42553711 C-52.67935547 146.58569336 -52.67935547 146.58569336 -53.69921875 147.76928711 C-68.7269004 164.89103514 -87.02604247 174.00484485 -109.6796875 176.42553711 C-115.61294571 176.72066002 -121.55429528 176.61719141 -127.4921875 176.55053711 C-129.07095779 176.54047608 -130.64973437 176.53135581 -132.22851562 176.52319336 C-136.04573203 176.50145275 -139.86263759 176.46709976 -143.6796875 176.42553711 C-143.72794678 177.24940918 -143.77620605 178.07328125 -143.82592773 178.92211914 C-145.60726554 205.74856365 -145.60726554 205.74856365 -153.7421875 212.98803711 C-155.71484375 214.36694336 -155.71484375 214.36694336 -157.6796875 215.42553711 C-158.52188843 215.94289429 -158.52188843 215.94289429 -159.38110352 216.47070312 C-164.08186858 218.42340543 -169.44822216 217.79732874 -174.46923828 217.79614258 C-176.54153039 217.80050938 -178.611679 217.83683396 -180.68359375 217.87475586 C-181.99972656 217.87862305 -183.31585938 217.88249023 -184.671875 217.88647461 C-185.87183105 217.89469238 -187.07178711 217.90291016 -188.30810547 217.91137695 C-193.6681812 217.13899819 -198.46539728 213.77628045 -201.77368164 209.46020508 C-206.07820432 199.79329805 -201.4716552 185.26572236 -199.42651367 175.3894043 C-198.86027797 172.64201184 -198.32257353 169.89001199 -197.78710938 167.13647461 C-197.433957 165.38353412 -197.07919979 163.63091599 -196.72265625 161.87866211 C-196.56314987 161.05795227 -196.40364349 160.23724243 -196.23930359 159.3916626 C-195.0249947 153.65574191 -195.0249947 153.65574191 -191.6796875 151.42553711 C-189.41796875 151.01147461 -189.41796875 151.01147461 -186.9921875 150.80053711 C-185.77982422 150.68838867 -185.77982422 150.68838867 -184.54296875 150.57397461 C-183.92808594 150.52499023 -183.31320312 150.47600586 -182.6796875 150.42553711 C-183.84315401 160.28895467 -185.74676706 169.9278768 -187.8269043 179.63256836 C-188.45411336 182.56163712 -189.07002559 185.49276833 -189.6796875 188.42553711 C-189.88980469 189.4189209 -190.09992188 190.41230469 -190.31640625 191.43579102 C-190.60451172 192.87897705 -190.60451172 192.87897705 -190.8984375 194.35131836 C-191.07310547 195.20765869 -191.24777344 196.06399902 -191.42773438 196.94628906 C-191.7057521 199.68201579 -191.3998137 201.78056879 -190.6796875 204.42553711 C-187.97356044 207.13166417 -179.94896823 205.66069279 -176.3046875 205.67553711 C-175.0465625 205.69616211 -173.7884375 205.71678711 -172.4921875 205.73803711 C-170.68621094 205.74577148 -170.68621094 205.74577148 -168.84375 205.75366211 C-167.18013428 205.76768066 -167.18013428 205.76768066 -165.48291016 205.78198242 C-162.73872543 205.62513807 -162.73872543 205.62513807 -160.89746094 204.34985352 C-159.07705532 201.47326229 -158.66509749 198.64384213 -158.03125 195.30834961 C-157.74518435 193.88248952 -157.45871326 192.45671072 -157.171875 191.03100586 C-156.73532254 188.7918351 -156.30491676 186.5517548 -155.8828125 184.30981445 C-155.46960695 182.13905057 -155.03299063 179.97397289 -154.59375 177.80834961 C-154.3457666 176.51300293 -154.0977832 175.21765625 -153.84228516 173.88305664 C-152.45152434 169.74698887 -151.22682445 167.97109429 -147.6796875 165.42553711 C-144.750366 164.95217628 -142.39585541 164.77217805 -139.4765625 164.82397461 C-138.68050598 164.81596832 -137.88444946 164.80796204 -137.06427002 164.79971313 C-134.5188914 164.77670543 -131.97510728 164.78603605 -129.4296875 164.80053711 C-107.1529147 164.83524965 -87.58804578 163.11665456 -69.6796875 148.42553711 C-69.04417969 147.90475586 -68.40867187 147.38397461 -67.75390625 146.84741211 C-55.37808265 135.58114511 -48.23615219 118.4725265 -47.40625 101.95678711 C-47.03604411 88.91414896 -48.06197506 76.53722331 -56.91796875 66.09741211 C-69.9505838 53.72943153 -89.77499826 53.57557957 -106.6796875 52.42553711 C-106.7066918 50.96730499 -106.72608537 49.50893036 -106.7421875 48.05053711 C-106.75378906 47.23842773 -106.76539063 46.42631836 -106.77734375 45.58959961 C-106.6796875 43.42553711 -106.6796875 43.42553711 -105.6796875 41.42553711 C-87.17716921 40.41015501 -66.0515844 43.4736494 -51.34765625 55.71069336 C-46.47453282 60.72076639 -43.12892519 66.13413668 -40.57714844 72.61010742 C-40.22070251 73.51158508 -39.86425659 74.41306274 -39.49700928 75.34185791 C-39.22729309 76.02947205 -38.9575769 76.71708618 -38.6796875 77.42553711 C-38.42799805 76.16708984 -38.17630859 74.90864258 -37.91699219 73.61206055 C-36.35481771 65.80118815 -34.79264323 57.99031576 -33.23046875 50.17944336 C-33.033927 49.19560669 -32.83738525 48.21177002 -32.6348877 47.19812012 C-32.23714424 45.21168453 -31.83764386 43.22559994 -31.43640137 41.23986816 C-30.45988731 36.39633456 -29.51190985 31.55108554 -28.63085938 26.68920898 C-28.46217346 25.78261536 -28.29348755 24.87602173 -28.11968994 23.94195557 C-27.80571896 22.24866916 -27.50229735 20.55337611 -27.21185303 18.855896 C-25.84193793 11.57430446 -22.83796664 6.73633251 -16.6796875 2.42553711 C-11.62229157 -0.73285066 -5.77303825 0.01577708 0 0 Z " fill="#FAFAFB" transform="translate(544.6796875,301.574462890625)"/>
<path d="M0 0 C2.81497533 2.29431932 4.50777189 3.82409693 5.671875 7.31640625 C1.064735 6.78481317 -3.45675801 6.10755863 -8.015625 5.25390625 C-26.46414161 2.21749205 -44.94796306 6.04285438 -62.328125 12.31640625 C-63.53597656 12.74695313 -64.74382812 13.1775 -65.98828125 13.62109375 C-87.69300583 21.8387114 -106.39021116 34.74703118 -125.47119141 47.70361328 C-131.41175669 51.73450872 -137.39639553 55.69945594 -143.3894043 59.65185547 C-147.2640264 62.21969435 -151.07250288 64.83776365 -154.8046875 67.609375 C-167.04729531 76.62973066 -167.04729531 76.62973066 -174.41015625 75.99609375 C-176.83765037 75.13584125 -177.87080003 74.45871992 -179.328125 72.31640625 C-179.37781955 70.31702373 -179.38173456 68.31568762 -179.328125 66.31640625 C-205.03109247 71.4900602 -205.03109247 71.4900602 -230.328125 78.31640625 C-231.55015625 78.67992187 -232.7721875 79.0434375 -234.03125 79.41796875 C-255.07521561 85.9998048 -274.52730844 95.97931367 -291.328125 110.31640625 C-292.276875 111.05503906 -293.225625 111.79367187 -294.203125 112.5546875 C-297.9243337 115.66274917 -300.78591565 119.33964181 -303.703125 123.19140625 C-304.26966797 123.9380957 -304.83621094 124.68478516 -305.41992188 125.45410156 C-329.08101046 157.33047119 -332.28883236 198.48049948 -332.55819511 236.9637928 C-332.57486505 239.31782999 -332.59709683 241.67176332 -332.62062073 244.02574158 C-332.65413741 247.40167024 -332.68601557 250.77760754 -332.71655273 254.15356445 C-332.95985295 280.55194717 -333.33939902 306.93430894 -334.328125 333.31640625 C-334.37000946 334.46344025 -334.41189392 335.61047424 -334.45504761 336.79226685 C-334.57372452 339.98806854 -334.69895444 343.18351303 -334.828125 346.37890625 C-334.86353897 347.29502182 -334.89895294 348.21113739 -334.93544006 349.15501404 C-334.97221359 350.00362503 -335.00898712 350.85223602 -335.046875 351.7265625 C-335.07716797 352.44980713 -335.10746094 353.17305176 -335.13867188 353.91821289 C-335.28949345 355.82738857 -335.53924419 357.72867969 -335.8223877 359.62275696 C-336.34265974 363.4225606 -336.57261482 367.17717389 -336.70117188 371.00463867 C-336.74289379 372.1186063 -336.74289379 372.1186063 -336.78545856 373.25507832 C-336.87668845 375.72721496 -336.96208744 378.19950952 -337.046875 380.671875 C-337.11001044 382.45219167 -337.17321935 384.23250573 -337.23649597 386.01281738 C-337.40597673 390.83777967 -337.5684009 395.66295424 -337.72817612 400.48824692 C-337.82807583 403.50242273 -337.92948052 406.51654564 -338.03091431 409.53067017 C-339.55225594 455.1171341 -340.0466419 500.70768773 -340.328125 546.31640625 C-340.988125 545.98640625 -341.648125 545.65640625 -342.328125 545.31640625 C-346.02425661 533.03088379 -346.97571343 520.10634909 -348.015625 507.37890625 C-348.1064888 506.27486954 -348.1064888 506.27486954 -348.19918823 505.14852905 C-349.72634692 486.25161397 -350.460109 467.31291203 -350.88012695 448.36206055 C-350.90104169 447.43856603 -350.92195642 446.51507151 -350.94350493 445.56359231 C-351.46928801 421.78904315 -351.49276215 398.01402205 -351.49538207 374.23467088 C-351.49610513 370.52758216 -351.49826194 366.82049689 -351.50087929 363.11340904 C-351.51003795 350.11019031 -351.51422477 337.10698162 -351.51342773 324.10375977 C-351.51285745 312.75182575 -351.52166485 301.39994162 -351.5365661 290.04801992 C-351.55101366 278.95091169 -351.55765002 267.85382128 -351.55697232 256.75670356 C-351.55671992 250.57440235 -351.55942871 244.39214117 -351.57015038 238.2098484 C-351.5799426 232.41038125 -351.57983573 226.61099168 -351.57263374 220.81152153 C-351.5716028 218.70792144 -351.57385979 216.60431619 -351.5799942 214.50072479 C-351.70725745 167.77468426 -347.64142419 119.08486836 -314.203125 83.69140625 C-286.24190243 56.67402241 -244.8833931 45.93239857 -207.6315918 40.00878906 C-205.63041202 39.68977818 -203.63064096 39.36280546 -201.63085938 39.03515625 C-192.35344025 37.54488168 -183.06194544 36.11736537 -173.640625 36.25390625 C-172.39732422 36.26744141 -172.39732422 36.26744141 -171.12890625 36.28125 C-170.53464844 36.29285156 -169.94039062 36.30445313 -169.328125 36.31640625 C-169.39 37.38890625 -169.451875 38.46140625 -169.515625 39.56640625 C-169.55604713 43.18537028 -169.55604713 43.18537028 -168.265625 45.75390625 C-165.97226072 47.60339357 -164.3684932 47.83086955 -161.45336914 47.75610352 C-156.78584697 46.79042776 -152.96402223 43.69853499 -149.078125 41.06640625 C-147.10441207 39.77045951 -145.13044955 38.47489282 -143.15625 37.1796875 C-142.17333984 36.52693848 -141.19042969 35.87418945 -140.17773438 35.20166016 C-83.70969951 -2.15664735 -83.70969951 -2.15664735 -57.328125 -9.68359375 C-56.60109375 -9.92335937 -55.8740625 -10.163125 -55.125 -10.41015625 C-36.76451647 -15.66601985 -15.11114839 -10.92769288 0 0 Z " fill="#DEE3F5" transform="translate(376.328125,184.68359375)"/>
<path d="M0 0 C1.27595535 -0.00630432 2.55191071 -0.01260864 3.86653137 -0.019104 C5.26478207 -0.01552001 6.66303151 -0.011417 8.0612793 -0.00683594 C9.50318975 -0.00818463 10.94509976 -0.01012686 12.38700867 -0.01263428 C15.41755478 -0.01558632 18.44798319 -0.01129233 21.47851562 -0.00195312 C25.32330857 0.00932931 29.16781879 0.00295471 33.0126009 -0.00909805 C35.9975945 -0.01641125 38.98252395 -0.01398408 41.96751976 -0.00884247 C43.38219424 -0.00752603 44.79687491 -0.00908166 46.21154213 -0.01380157 C64.30182973 -0.06083367 83.45317649 1.24766644 97.5300293 13.77832031 C106.10043383 22.69588048 108.10317764 34.66196244 107.9675293 46.51269531 C107.36381805 62.1602382 102.67422951 76.01542633 92.82299805 88.25878906 C92.29061523 88.95359375 91.75823242 89.64839844 91.2097168 90.36425781 C80.26356694 103.87060501 64.28411703 111.21147869 47.28248596 113.04754639 C43.45568621 113.37622595 39.64607261 113.39428682 35.80737305 113.39941406 C34.12767171 113.41771704 32.44798377 113.43728496 30.76831055 113.45800781 C28.15902382 113.48708751 25.55062225 113.50879321 22.94116211 113.50927734 C20.39579469 113.51261022 17.85239753 113.54710187 15.30737305 113.58691406 C14.53020935 113.57984436 13.75304565 113.57277466 12.95233154 113.56549072 C9.1067353 113.65180509 7.03906775 114.10295086 3.89428711 116.37109375 C1.49244034 119.71963731 0.85210332 122.07833635 0.19799805 126.13378906 C0.08375488 126.7807373 -0.03048828 127.42768555 -0.14819336 128.09423828 C-0.51010416 130.14638637 -0.84665104 132.20134039 -1.17700195 134.25878906 C-1.61258356 136.97162185 -2.07421162 139.67810756 -2.55200195 142.38378906 C-2.74536133 143.58261719 -2.9387207 144.78144531 -3.13793945 146.01660156 C-4.41821382 150.01144262 -5.83481718 151.74024853 -9.17700195 154.25878906 C-12.19140625 154.8581543 -12.19140625 154.8581543 -15.5012207 154.81738281 C-17.29076172 154.80674805 -17.29076172 154.80674805 -19.11645508 154.79589844 C-20.97173828 154.7465918 -20.97173828 154.7465918 -22.86450195 154.69628906 C-24.11295898 154.69048828 -25.36141602 154.6846875 -26.64770508 154.67871094 C-35.88220886 154.55358216 -35.88220886 154.55358216 -38.17700195 152.25878906 C-38.67697252 145.74446663 -37.41744281 139.9517517 -35.92700195 133.63378906 C-34.23416816 126.15562153 -32.6371355 118.68429959 -31.30200195 111.13378906 C-29.55303514 101.28802258 -27.7255417 91.4588857 -25.86450195 81.63378906 C-25.6417308 80.45768066 -25.6417308 80.45768066 -25.41445923 79.2578125 C-16.97348509 34.73359295 -16.97348509 34.73359295 -12.86450195 14.82128906 C-12.71730713 14.09474121 -12.5701123 13.36819336 -12.41845703 12.61962891 C-10.63870453 4.16554417 -9.32701959 0.01320853 0 0 Z " fill="#3B3755" transform="translate(667.177001953125,353.7412109375)"/>
<path d="M0 0 C1.86205078 -0.0009668 1.86205078 -0.0009668 3.76171875 -0.00195312 C5.70111328 0.02801758 5.70111328 0.02801758 7.6796875 0.05859375 C8.98035156 0.05150391 10.28101563 0.04441406 11.62109375 0.03710938 C18.77659508 0.08550767 18.77659508 0.08550767 21.5546875 0.49609375 C25.14419212 5.88035068 22.78572408 12.57926616 21.58203125 18.671875 C21.22373858 20.38516541 20.8604481 22.09741819 20.4921875 23.80859375 C18.70799492 31.08609129 18.70799492 31.08609129 18.5546875 38.49609375 C21.43800646 41.37941271 23.55503955 40.78208633 27.58984375 40.83984375 C29.04622456 40.8682146 30.50260474 40.89661751 31.95898438 40.92504883 C32.72073975 40.93629791 33.48249512 40.947547 34.26733398 40.95913696 C75.55874046 41.60853817 75.55874046 41.60853817 86.5546875 51.49609375 C93.5436382 61.01683353 93.6925755 71.14363747 92.1612854 82.38378906 C90.91130615 90.2511636 89.35545135 98.05863218 87.8046875 105.87109375 C87.35547132 108.19896836 86.90754694 110.52709263 86.4609375 112.85546875 C85.39190046 118.40113518 84.28590164 123.93846359 83.16088867 129.47302246 C82.58974706 132.32125486 82.04685225 135.17350629 81.50976562 138.02832031 C81.18723924 139.65580567 80.863745 141.28309967 80.5390625 142.91015625 C80.41041809 143.63286713 80.28177368 144.355578 80.14923096 145.10018921 C79.44916498 148.47366876 78.65746733 150.38422539 76.31005859 152.93920898 C73.09956402 154.75325505 71.15454788 154.99870193 67.484375 154.9921875 C66.34097656 154.99283203 65.19757813 154.99347656 64.01953125 154.99414062 C62.83488281 154.97416016 61.65023437 154.95417969 60.4296875 154.93359375 C58.64111328 154.94422852 58.64111328 154.94422852 56.81640625 154.95507812 C48.14047437 154.89135659 48.14047437 154.89135659 45.68334961 153.23339844 C44.21560861 150.9741631 44.33185047 149.92135104 44.69140625 147.265625 C44.8104834 146.37568848 44.92956055 145.48575195 45.05224609 144.56884766 C46.05760436 138.42043212 47.18806175 132.30039278 48.3671875 126.18359375 C48.63801277 124.76130635 48.9084356 123.33894228 49.1784668 121.91650391 C49.84360253 118.41775687 50.51341633 114.91992747 51.18505859 111.42242432 C51.91231501 107.63230879 52.6340432 103.8411384 53.35620117 100.05004883 C53.68585192 98.32178428 54.01665829 96.59373956 54.34887695 94.8659668 C57.04039289 83.20136803 57.04039289 83.20136803 55.4921875 71.62109375 C52.16717958 67.97431087 47.75291504 67.59341754 42.9777832 67.20556641 C37.98986793 67.14499359 37.98986793 67.14499359 33.00170898 67.12548828 C30.8616766 67.1210824 28.72365742 67.08459791 26.58398438 67.046875 C25.21615282 67.04101148 23.84831157 67.03703898 22.48046875 67.03515625 C21.24723877 67.02693848 20.01400879 67.0187207 18.7434082 67.01025391 C15.5098615 67.25253409 15.5098615 67.25253409 13.20361328 69.20922852 C11.37239045 71.74891822 10.79264537 73.47747483 10.24609375 76.546875 C9.96572266 78.04130127 9.96572266 78.04130127 9.6796875 79.56591797 C9.40125 81.17104248 9.40125 81.17104248 9.1171875 82.80859375 C8.69331243 85.08889682 8.26748993 87.36883865 7.83984375 89.6484375 C7.62730957 90.79940918 7.41477539 91.95038086 7.19580078 93.13623047 C6.25397542 98.07202661 5.15699171 102.96912791 4.0546875 107.87109375 C1.85648716 117.74302744 -0.00319278 127.66445365 -1.74609375 137.62646484 C-1.93945312 138.71008301 -2.1328125 139.79370117 -2.33203125 140.91015625 C-2.49920654 141.86873535 -2.66638184 142.82731445 -2.83862305 143.81494141 C-3.69090114 147.58142754 -4.45316883 150.48110558 -7.19482422 153.28588867 C-10.0958975 154.84594728 -12.16631443 154.86865694 -15.453125 154.859375 C-16.60425781 154.85873047 -17.75539063 154.85808594 -18.94140625 154.85742188 C-20.13894531 154.84130859 -21.33648438 154.82519531 -22.5703125 154.80859375 C-23.77558594 154.81181641 -24.98085938 154.81503906 -26.22265625 154.81835938 C-35.1783288 154.76307745 -35.1783288 154.76307745 -37.4453125 152.49609375 C-37.83622459 145.86721409 -36.98037367 139.83552277 -35.6796875 133.3515625 C-35.49031113 132.37302307 -35.30093475 131.39448364 -35.1058197 130.3862915 C-34.47720042 127.1503946 -33.8363739 123.91704677 -33.1953125 120.68359375 C-32.74784235 118.394081 -32.30099674 116.10444612 -31.85473633 113.81469727 C-29.36795962 101.09191675 -26.82752688 88.37973667 -24.28515625 75.66796875 C-24.15357998 75.01005655 -24.02200371 74.35214436 -23.88644028 73.67429543 C-22.4788666 66.63799703 -21.06684301 59.60262642 -19.64550781 52.5690918 C-19.40637665 51.38221268 -19.16724548 50.19533356 -18.92086792 48.9724884 C-18.44941326 46.63263945 -17.9764004 44.29310385 -17.5017395 41.9539032 C-16.2910979 35.93487444 -15.15556307 29.91157592 -14.11962891 23.85986328 C-13.9040181 22.62051529 -13.68840729 21.3811673 -13.46626282 20.10426331 C-13.05863964 17.73856344 -12.66419977 15.37054151 -12.28507996 13.00010681 C-12.10181656 11.94183182 -11.91855316 10.88355682 -11.72973633 9.79321289 C-11.57741043 8.86400528 -11.42508453 7.93479767 -11.2681427 6.97743225 C-9.30973346 1.07162539 -5.83394519 -0.0094881 0 0 Z " fill="#3B3755" transform="translate(539.4453125,312.50390625)"/>
<path d="M0 0 C2.34361027 -0.00318701 4.68717906 -0.01025726 7.03077698 -0.01837158 C64.78324853 -0.19642783 122.89130242 6.8172127 172.37879944 39.24676514 C172.98191956 39.64186279 173.58503967 40.03696045 174.20643616 40.44403076 C193.82024658 53.49498439 210.02208646 69.80032193 224.00379944 88.68426514 C224.67934875 89.57105957 224.67934875 89.57105957 225.36854553 90.47576904 C226.60536194 92.18035889 226.60536194 92.18035889 228.37879944 95.24676514 C227.98963928 97.43841553 227.98963928 97.43841553 227.37879944 99.24676514 C226.6944281 98.5309729 226.6944281 98.5309729 225.99623108 97.80072021 C211.23749014 82.4602452 195.9864718 69.61552687 177.37879944 59.24676514 C176.73007874 58.87599854 176.08135803 58.50523193 175.41297913 58.12322998 C163.85800071 51.53762184 151.91862965 46.63736882 139.37879944 42.24676514 C138.59279358 41.96703857 137.80678772 41.68731201 136.9969635 41.39910889 C123.43544506 36.62692985 109.54549233 33.6177362 95.37879944 31.24676514 C94.63592682 31.12134338 93.8930542 30.99592163 93.12767029 30.86669922 C79.53674838 28.61622846 66.20527419 27.67526069 52.44129944 27.49676514 C51.40776337 27.47930237 50.37422729 27.4618396 49.30937195 27.44384766 C8.46564959 26.76494088 -32.4306766 27.88060493 -73.26133728 28.87509155 C-89.38414544 29.2676174 -105.49386916 29.36682888 -121.62120056 29.24676514 C-122.91495923 25.8725634 -124.20583117 22.49726431 -125.49620056 19.12176514 C-125.86100525 18.17043701 -126.22580994 17.21910889 -126.60166931 16.23895264 C-126.9561615 15.31082764 -127.31065369 14.38270264 -127.67588806 13.42645264 C-128.00057068 12.57808838 -128.3252533 11.72972412 -128.65977478 10.85565186 C-129.71013928 8.00542458 -130.66592706 5.13007888 -131.62120056 2.24676514 C-87.75347564 1.12952796 -43.88416986 0.03885348 0 0 Z " fill="#B5BFE7" transform="translate(548.6212005615234,209.75323486328125)"/>
<path d="M0 0 C17.24686563 3.44937313 17.24686563 3.44937313 23.61328125 5.6640625 C24.31978317 5.90160248 25.0262851 6.13914246 25.75419617 6.38388062 C27.9433179 7.12235057 30.1278248 7.87349315 32.3125 8.625 C33.81678215 9.13362698 35.32133865 9.64144328 36.82617188 10.1484375 C47.56713763 13.78356882 47.56713763 13.78356882 50 15 C50 65.82 50 116.64 50 169 C48.46290296 165.92580591 47.54718876 163.6133368 46.6875 160.375 C44.83419219 154.03818491 42.37806102 147.74319638 38.015625 142.7109375 C35.47790807 139.29780659 34.44490908 135.96040042 33.1875 131.9375 C30.06920755 122.58463769 26.52595449 112.69263425 18 107 C14.2797285 106.06184458 10.57784728 106.1071361 7.19140625 108.0234375 C5.3777806 109.46849329 5.3777806 109.46849329 3 112 C2.01 112.99 1.02 113.98 0 115 C0 77.05 0 39.1 0 0 Z " fill="#8EA4E7" transform="translate(219,529)"/>
<path d="M0 0 C9.80965929 4.80473108 15.08210913 16.29800396 19 26 C19.328125 28.78515625 19.328125 28.78515625 19 31 C17.38161281 32.71358643 15.70328319 34.3707726 14 36 C1.72280849 51.07494292 -2.86754064 72.6733358 -1.9375 91.6875 C-0.95434836 98.66256232 3.15031575 105.22547363 7 111 C0.33607965 113.73391604 -5.84867223 114.13460667 -12.5625 111.4375 C-22.83619365 106.30065318 -29.26788353 97.88384941 -32.875 87.0625 C-35.93782585 74.19133899 -34.37498634 60.60871518 -31 48 C-30.73316406 46.83597656 -30.46632813 45.67195312 -30.19140625 44.47265625 C-26.84465767 30.53530772 -18.58871437 -2.24346553 0 0 Z " fill="#93A8D5" transform="translate(657,669)"/>
<path d="M0 0 C7.79676465 1.99066331 11.3432708 7.1595484 15.2890625 13.765625 C22.05492484 26.01472175 22.05492484 26.01472175 21.76171875 30.34765625 C20.83021077 33.06271506 19.78160294 34.30780571 17.75 36.3125 C5.82164024 49.34081096 0.04849317 71.71880207 0.65234375 89.23046875 C1.54759742 97.14058678 4.50782181 103.24888957 8.9375 109.75 C9.2675 110.41 9.5975 111.07 9.9375 111.75 C3.78777316 114.49915975 -2.28993332 114.97649483 -8.75390625 112.875 C-19.9439338 107.6814605 -25.52920427 99.14606884 -30.21484375 88.01171875 C-31.34376069 83.6677296 -31.36165262 79.59452795 -31.3125 75.125 C-31.30500732 74.22982666 -31.29751465 73.33465332 -31.28979492 72.41235352 C-31.1806536 65.67546817 -30.62395873 59.31945332 -29.0625 52.75 C-28.90120605 52.05583984 -28.73991211 51.36167969 -28.57373047 50.64648438 C-17.65654379 4.32405154 -17.65654379 4.32405154 0 0 Z " fill="#93A8D5" transform="translate(335.0625,673.25)"/>
<path d="M0 0 C-0.64699164 5.50894355 -3.08156803 7.3974325 -7.16796875 10.86328125 C-12.19382677 14.65520447 -17.55950602 17.83829098 -23 21 C-22.14019531 20.84144531 -21.28039062 20.68289063 -20.39453125 20.51953125 C-9.47229201 18.84788819 -0.68588046 19.64671086 8.3125 26.25 C13.39153463 31.44715171 15.24076633 35.94956028 15.625 43.25 C15.28642282 52.67555176 11.46636001 60.08548394 4.625 66.5 C-3.87907895 73.34301511 -13.93823374 77.16439645 -25 76 C-35.17248368 73.14404944 -40.34990952 69.63396325 -45.58203125 60.4609375 C-47.05946035 57.81837031 -47.05946035 57.81837031 -49.25 54.75 C-53.60237755 47.91054956 -53.73314902 40.87903192 -53 33 C-50.66629252 23.03632673 -44.25220907 15.79063264 -35.7109375 10.44140625 C-25.08562362 4.7919238 -12.20322372 -0.81354825 0 0 Z " fill="#3D3958" transform="translate(165,329)"/>
<path d="M0 0 C1.26908203 -0.02449219 2.53816406 -0.04898437 3.84570312 -0.07421875 C12.77119278 -0.10169589 23.29822311 0.38526383 30.1875 6.875 C35.62104231 14.11972308 34.8110999 22.6594257 34.0625 31.375 C32.3180726 40.8206779 28.41618485 50.69275328 21.1875 57.3125 C10.27653677 64.51373573 -2.94984478 64.69925636 -15.625 64.5625 C-16.80255859 64.56185547 -17.98011719 64.56121094 -19.19335938 64.56054688 C-27.79668445 64.51581555 -27.79668445 64.51581555 -28.9375 63.375 C-29.25636047 56.4688215 -28.38743477 50.15753081 -27.07421875 43.390625 C-26.88156937 42.37200378 -26.68891998 41.35338257 -26.49043274 40.30389404 C-26.08344952 38.16518405 -25.67226584 36.0272695 -25.25708008 33.89013672 C-24.62464961 30.62318997 -24.01176164 27.35297652 -23.40039062 24.08203125 C-23.00117044 21.99717137 -22.60081886 19.91252775 -22.19921875 17.828125 C-21.92714851 16.36708344 -21.92714851 16.36708344 -21.64958191 14.87652588 C-19.93652941 6.19943731 -19.93652941 6.19943731 -16.9375 2.375 C-11.87520297 -0.99986469 -5.94538998 0.0058778 0 0 Z " fill="#FAFAFB" transform="translate(704.9375,377.625)"/>
<path d="M0 0 C6.48089415 2.34653064 9.15385973 7.50747896 12.2578125 13.42578125 C19.05074922 28.22345998 24.36032206 46.78417528 19.5546875 62.90234375 C16.24098022 70.22690438 11.76756884 74.74121558 4.625 78.3125 C-2.52015454 79.27740121 -7.63986541 78.5443192 -13.43359375 74.16015625 C-16.4809759 71.25993138 -18.56203117 68.09133865 -20.375 64.3125 C-20.73722656 63.58160156 -21.09945313 62.85070312 -21.47265625 62.09765625 C-26.57775417 46.34036268 -20.3873519 26.91062079 -13.3359375 12.70800781 C-7.03397433 0.65129392 -7.03397433 0.65129392 0 0 Z " fill="#93A8D5" transform="translate(363.375,708.6875)"/>
<path d="M0 0 C4.76196679 0.78065029 6.12735694 2.11954801 9.046875 5.828125 C19.06182739 21.69251861 23.44746159 40.99746011 21.8125 59.625 C19.46389365 67.32375112 15.05551818 72.31746784 8.5625 76.9375 C4.36144519 79.16105179 0.46201714 79.53887061 -4.1875 78.625 C-10.77739306 75.90727038 -15.77419521 70.94162819 -19.22265625 64.7734375 C-25.72290821 49.11236534 -19.50371273 30.85130395 -13.75 16 C-11.09167783 9.94306342 -6.94413732 1.36159555 0 0 Z " fill="#93A8D5" transform="translate(681.1875,703.375)"/>
<path d="M0 0 C8.1780682 0.55214983 16.11480793 1.50543293 22.12890625 7.51953125 C22.62390625 8.34453125 23.11890625 9.16953125 23.62890625 10.01953125 C23.9846875 10.60476563 24.34046875 11.19 24.70703125 11.79296875 C28.59879203 21.19256045 24.91053327 33.99769252 21.50390625 43.08203125 C18.47879054 49.91492341 14.77818448 55.86828064 7.984375 59.390625 C5.20640469 60.45130457 2.51354904 61.29555718 -0.37109375 62.01953125 C-0.98557373 62.19468262 -1.60005371 62.36983398 -2.2331543 62.55029297 C-9.22434982 64.37296004 -16.12050848 64.31573212 -23.30859375 64.26953125 C-24.53900391 64.27726562 -25.76941406 64.285 -27.03710938 64.29296875 C-28.20822266 64.29039062 -29.37933594 64.2878125 -30.5859375 64.28515625 C-31.6493335 64.28290039 -32.71272949 64.28064453 -33.80834961 64.27832031 C-36.37109375 64.01953125 -36.37109375 64.01953125 -38.37109375 62.01953125 C-38.37109375 60.69953125 -38.37109375 59.37953125 -38.37109375 58.01953125 C-36.5 56.265625 -36.5 56.265625 -33.93359375 54.45703125 C-17.13955134 41.59502133 -9.49203511 22.56683971 -3.94921875 2.8125 C-3.08187826 0.12257239 -2.9080925 0.02395463 0 0 Z " fill="#FAFBFC" transform="translate(437.37109375,377.98046875)"/>
<path d="M0 0 C5.80670623 2.2660317 7.95857776 8.30141762 10.328125 13.69140625 C15.65526207 27.97015655 20.09139661 45.51021831 13.5625 60 C10.87233441 64.07669351 8.14519458 67.13935709 3.5625 69 C-0.27624202 69.73794671 -3.82142009 69.75824027 -7.40234375 68.078125 C-13.89882011 63.24486031 -16.74353019 55.6038973 -17.91796875 47.8125 C-18.57986048 32.64265703 -13.79027816 13.02752065 -3.87890625 1.12890625 C-2.4375 0 -2.4375 0 0 0 Z " fill="#93A8D5" transform="translate(249.4375,672)"/>
<path d="M0 0 C3.06471811 0.73860186 4.61601316 1.54644377 6.66015625 3.9609375 C14.7207321 17.83680345 21.17852458 38.46628214 17.37890625 54.64453125 C15.25122506 60.95192392 11.93217769 65.77909253 6 69 C1.47096657 70.23649802 -2.12425896 70.01844359 -6.2734375 67.765625 C-12.34511931 63.02565035 -15.31981427 57.05057454 -16.33984375 49.4765625 C-16.92113232 33.99103496 -12.40353968 14.36252017 -3 2 C-2.01 1.34 -1.02 0.68 0 0 Z " fill="#798DC5" transform="translate(567,674)"/>
<path d="M0 0 C7.49549152 5.21284723 11.71400009 16.33403569 13.6640625 24.92578125 C13.77492187 25.61027344 13.88578125 26.29476562 14 27 C13.29875 27.185625 12.5975 27.37125 11.875 27.5625 C4.2423469 31.37882655 0.82012004 39.32510956 -2 47 C-6.45417547 61.39386235 -8.91172411 75.979201 -6 91 C-14.46357725 87.4978301 -18.57384735 82.65513321 -22.375 74.375 C-28.9197284 54.35420637 -22.4848886 29.83883634 -13.84375 11.41015625 C-7.28271615 -0.72497627 -7.28271615 -0.72497627 0 0 Z " fill="#92A8D4" transform="translate(235,640)"/>
<path d="M0 0 C7.55650433 3.85864051 11.1330027 12.87810008 13.9375 20.5 C14.50064748 22.89337681 14.77346416 25.0394624 14.9375 27.5 C14.03 28.056875 13.1225 28.61375 12.1875 29.1875 C1.24387785 36.97430807 -1.38532815 51.07214832 -4.0625 63.5 C-4.26230469 64.42425781 -4.46210937 65.34851563 -4.66796875 66.30078125 C-5.24677931 70.99430447 -5.1666033 75.65142529 -5.125 80.375 C-5.12048828 81.34953125 -5.11597656 82.3240625 -5.11132812 83.328125 C-5.09960906 85.71881434 -5.08320219 88.1093744 -5.0625 90.5 C-11.16318722 89.11993244 -14.8037797 85.31815154 -18.3125 80.25 C-27.48547324 62.18082427 -21.89635429 40.86875743 -16.0625 22.5 C-8.53044353 1.39272547 -8.53044353 1.39272547 0 0 Z " fill="#798CC5" transform="translate(552.0625,641.5)"/>
<path d="M0 0 C0 26.07 0 52.14 0 79 C-1.73697044 75.52605913 -2.73053535 72.58620903 -3.75 68.875 C-5.64627161 62.55409465 -8.38509061 57.47538275 -12 52 C-14.44179757 48.24434181 -15.91537529 44.62878864 -17.3125 40.375 C-22.27098197 26.08871528 -22.27098197 26.08871528 -33 16 C-37.38353299 15.23095912 -39.29045311 15.61044484 -43.1875 17.75 C-46.311739 20.16449696 -46.311739 20.16449696 -50 24 C-50 17.4 -50 10.8 -50 4 C-47.62683594 3.79503906 -45.25367188 3.59007812 -42.80859375 3.37890625 C-40.49173985 3.17746605 -38.17494481 2.97536111 -35.8581543 2.77319336 C-34.2569776 2.6338272 -32.65574126 2.49514429 -31.05444336 2.35717773 C-28.74316371 2.15791709 -26.43211483 1.9561411 -24.12109375 1.75390625 C-23.0597245 1.66321617 -23.0597245 1.66321617 -21.97691345 1.57069397 C-18.81293002 1.2916533 -15.69270704 0.95119811 -12.55493164 0.45288086 C-8.40080663 -0.0763343 -4.18769904 0 0 0 Z " fill="#5F6FA4" transform="translate(588,622)"/>
<path d="M0 0 C-2.42377604 2.70679331 -5.01996761 4.26979431 -8.19921875 6.00390625 C-9.23457764 6.57520264 -10.26993652 7.14649902 -11.33666992 7.73510742 C-13.60554495 8.9724502 -15.87526478 10.20824491 -18.14575195 11.44262695 C-25.37683235 15.38637888 -25.37683235 15.38637888 -32.15625 20.0390625 C-44.56280092 29.47816899 -58.93368103 29.19498875 -74 30 C-76.81179084 30.17758935 -79.62269979 30.36738999 -82.43359375 30.55859375 C-83.69099365 30.64294678 -84.94839355 30.7272998 -86.24389648 30.81420898 C-87.15341064 30.87552002 -88.0629248 30.93683105 -89 31 C-84.91612719 25.50789519 -79.95896334 21.49763414 -74.60058594 17.27685547 C-72.93510998 15.94823447 -71.29902959 14.58859608 -69.6640625 13.22265625 C-49.28789063 -3.60067319 -25.53874255 -10.91804979 0 0 Z " fill="#90A7EA" transform="translate(279,176)"/>
<path d="M0 0 C3.85410207 -0.05847045 7.70808865 -0.09375405 11.5625 -0.125 C12.64853516 -0.14175781 13.73457031 -0.15851563 14.85351562 -0.17578125 C27.76361784 -0.25426211 27.76361784 -0.25426211 32.91796875 3.3359375 C35.78692096 7.74811671 34.20868471 14.64816127 33.25 19.5625 C31.52858553 26.41178998 28.91062603 32.83449718 24 38 C15.46881262 41.83677739 6.5174684 43.04314255 -2.7421875 43.015625 C-3.72815918 43.01336914 -4.71413086 43.01111328 -5.72998047 43.00878906 C-6.85364014 43.00443848 -6.85364014 43.00443848 -8 43 C-7.74307373 41.63234497 -7.74307373 41.63234497 -7.48095703 40.23706055 C-6.83584758 36.80221207 -6.19102505 33.36730996 -5.54638672 29.93237305 C-5.26915507 28.45546398 -4.99181434 26.97857538 -4.71435547 25.50170898 C-3.11826863 17.00557166 -1.53196343 8.50799067 0 0 Z " fill="#6778AD" transform="translate(695,389)"/>
<path d="M0 0 C-0.56411096 3.55255591 -1.60897217 6.68494817 -2.96801758 10.00952148 C-11.37270647 30.73129113 -17.49724085 56.11542408 -8.875 77.625 C-8.52179688 78.42164063 -8.16859375 79.21828125 -7.8046875 80.0390625 C-7 82 -7 82 -7 84 C-14.45829998 83.6074579 -21.31920812 79.13776302 -26.375 73.8125 C-30.94800571 67.92735345 -33.80076775 60.16663258 -33.375 52.67578125 C-30.857795 34.71447472 -24.80489045 15.20316801 -10.6875 3 C-6.7778494 0.09049258 -4.84062692 -0.10523102 0 0 Z " fill="#91A7D3" transform="translate(312,690)"/>
<path d="M0 0 C-1.33714191 4.66826738 -2.72846673 9.30087921 -4.39453125 13.86328125 C-12.76798214 37.10256345 -16.44478836 59.61290501 -7 83 C-14.92321872 82.71188296 -20.27970879 79.84969264 -25.796875 74.140625 C-31.17970752 67.47870356 -33.7570643 60.03828807 -33.46875 51.4609375 C-30.9923428 33.17679765 -23.84745913 12.80263136 -9 1 C-6.04335481 -0.4783226 -3.25770263 -0.06032783 0 0 Z " fill="#92A7D3" transform="translate(631,685)"/>
<path d="M0 0 C0.67337402 0.11762695 1.34674805 0.23525391 2.04052734 0.35644531 C14.57312526 2.78893267 14.57312526 2.78893267 17.375 6.875 C17.54 7.473125 17.705 8.07125 17.875 8.6875 C15.59557355 10.46830192 13.82108029 11.68197813 10.8671875 11.69921875 C7.74749081 11.31357359 4.85632439 10.6812748 1.875 9.6875 C-18.12795555 7.94361559 -37.44122007 11.80960742 -53.25 24.8125 C-56.15521475 27.53847271 -58.61339217 30.60181038 -61.125 33.6875 C-64.22548928 35.23774464 -66.70394218 34.97742015 -70.125 34.6875 C-73.0625 33.125 -73.0625 33.125 -75.125 30.6875 C-75.99329858 26.99723103 -75.74784863 24.80823081 -73.8984375 21.48046875 C-63.66416322 7.24464172 -47.34980441 1.89674807 -30.7578125 -0.875 C-20.51018054 -2.10912342 -10.15880961 -1.78431829 0 0 Z " fill="#3B3756" transform="translate(157.125,286.3125)"/>
<path d="M0 0 C3.81871122 3.50048529 6.82931143 7.55573974 7.1953125 12.796875 C7.17210937 13.77140625 7.14890625 14.7459375 7.125 15.75 C7.10695312 16.73484375 7.08890625 17.7196875 7.0703125 18.734375 C7.04710937 19.48203125 7.02390625 20.2296875 7 21 C4.88964253 18.88964253 4.57533563 17.95449061 3.75 15.1875 C2.11010545 10.60078985 -0.02222154 8.76009118 -4 6 C-4.928125 5.3503125 -4.928125 5.3503125 -5.875 4.6875 C-9.29081234 3.58238424 -12.49754923 3.33318726 -16 4 C-19.75396638 6.06632798 -22.49839994 8.94567985 -24 13 C-23.0925 13.268125 -22.185 13.53625 -21.25 13.8125 C-18 15 -18 15 -14 18 C-16.64 19.98 -19.28 21.96 -22 24 C-20.40834672 29.20904709 -17.60526865 31.40322244 -13.0625 34.1875 C-10.4168042 35.2297438 -7.80939772 35.61690031 -5 36 C-9.29897625 40.80473817 -12.73077202 42.65117419 -19.1484375 43.3359375 C-25.945291 43.41822386 -31.50457885 43.30890977 -37 39 C-42.27652387 33.8044754 -44.18973547 30.4380081 -44.4375 22.9375 C-44.49256673 15.70310797 -42.99005492 11.25604932 -38 6 C-37.38511719 5.34257812 -36.77023438 4.68515625 -36.13671875 4.0078125 C-26.5213609 -5.27996803 -11.44404646 -7.64499825 0 0 Z " fill="#F6F6F9" transform="translate(167,358)"/>
<path d="M0 0 C0.70703125 2.12890625 0.70703125 2.12890625 1 4 C-16.09485762 16.10885748 -40.29407333 13.32152114 -60 10 C-79.62714636 6.18642682 -79.62714636 6.18642682 -84 4 C-84 3.34 -84 2.68 -84 2 C-74.44855163 -1.2219783 -64.93835399 -3.41434611 -55 -5 C-53.7109375 -5.20753906 -52.421875 -5.41507812 -51.09375 -5.62890625 C-34.00226434 -8.0729887 -15.2587683 -9.50074252 0 0 Z " fill="#91A7D4" transform="translate(932,282)"/>
<path d="M0 0 C7.41918782 -0.33386345 13.23003602 -0.19337923 20 3 C21.85843489 4.85843489 21.26033193 7.75691556 21.3125 10.25 C21.2250931 19.7773523 19.59527087 29.70384355 12.609375 36.70703125 C3.93090889 43.67929407 -9.4135006 43.38187773 -20 43 C-20.34269036 39.34820585 -20.31168679 37.48917511 -18.3125 34.3515625 C-17.549375 33.45179688 -16.78625 32.55203125 -16 31.625 C-8.60126043 22.2540412 -3.28192977 11.48675418 0 0 Z " fill="#899FE0" transform="translate(431,389)"/>
<path d="M0 0 C3.26155009 2.23608456 5.30932846 5.59658993 6.7890625 9.2265625 C6.4590625 9.8865625 6.1290625 10.5465625 5.7890625 11.2265625 C4.9846875 10.8965625 4.1803125 10.5665625 3.3515625 10.2265625 C-1.60674816 10.2265625 -3.41528371 12.16176625 -6.90625 15.5234375 C-11.23486422 20.60038842 -14.20737111 26.31164447 -17.2109375 32.2265625 C-17.695625 33.15726563 -18.1803125 34.08796875 -18.6796875 35.046875 C-24.40341774 46.73864103 -26.70880268 59.39912177 -28.2109375 72.2265625 C-28.5409375 72.2265625 -28.8709375 72.2265625 -29.2109375 72.2265625 C-29.67848868 62.11360359 -28.34066809 53.0409892 -26.2109375 43.2265625 C-25.86869141 41.57140625 -25.86869141 41.57140625 -25.51953125 39.8828125 C-18.53883813 7.65195512 -18.53883813 7.65195512 -8.2109375 -0.7734375 C-4.77334017 -1.91930328 -3.24865892 -1.47917661 0 0 Z " fill="#ADC5ED" transform="translate(339.2109375,679.7734375)"/>
<path d="M0 0 C5.41532665 1.71485344 7.86953539 5.41590969 10.75 10.1875 C10.75 10.8475 10.75 11.5075 10.75 12.1875 C9.2340625 12.0328125 9.2340625 12.0328125 7.6875 11.875 C2.70723153 12.2702594 0.11312104 13.64994322 -3.25 17.1875 C-15.91557277 33.84205209 -21.8841568 52.59074743 -24.25 73.1875 C-24.58 73.1875 -24.91 73.1875 -25.25 73.1875 C-25.64964417 63.89171165 -24.50973863 55.22420473 -22.6875 46.125 C-22.55472656 45.44862488 -22.42195312 44.77224976 -22.28515625 44.07537842 C-16.14269643 13.07515154 -16.14269643 13.07515154 -6.25 2.1875 C-3.25 0.1875 -3.25 0.1875 0 0 Z " fill="#ADC5EE" transform="translate(654.25,672.8125)"/>
<path d="M0 0 C0 0.33 0 0.66 0 1 C-0.93960571 1.14248169 -0.93960571 1.14248169 -1.89819336 1.2878418 C-45.57514447 7.96318535 -90.82364789 16.35492964 -126 45 C-127.19882813 45.96873047 -127.19882813 45.96873047 -128.421875 46.95703125 C-142.77347178 59.10640025 -151.51255897 75.08306291 -159 92 C-160.32210958 89.00625763 -159.92654741 87.7765603 -158.8828125 84.6015625 C-158.31322651 83.26893351 -157.72612668 81.94370199 -157.125 80.625 C-156.64788574 79.56587402 -156.64788574 79.56587402 -156.16113281 78.48535156 C-141.26272268 46.40420418 -113.13690601 27.92299066 -80.93505859 15.79980469 C-63.5182169 9.43699565 -45.53091155 5.59179347 -27.24853516 2.63745117 C-25.23584269 2.3101981 -23.22544945 1.97066976 -21.21484375 1.63085938 C-14.10092379 0.45795852 -7.21883446 -0.35539206 0 0 Z " fill="#90A5E6" transform="translate(196,222)"/>
<path d="M0 0 C0.64735107 0.08564209 1.29470215 0.17128418 1.96166992 0.25952148 C14.51394052 1.89869905 26.95197288 3.37748376 39.6237793 3.53295898 C41.75423294 3.58547685 43.88030883 3.77977235 46 4 C48 7 48 7 48 9.5 C47 12 47 12 44.39453125 13.61328125 C36.76467766 16.73019497 28.09038317 16.3758311 20.45703125 13.41796875 C13.05705409 10.18108174 6.10472845 6.32540141 0 1 C0 0.67 0 0.34 0 0 Z " fill="#91A6D3" transform="translate(864,305)"/>
<path d="M0 0 C1.97471151 1.90054394 3.41054214 3.74399529 5 6 C4.67 6.66 4.34 7.32 4 8 C3.29875 7.236875 2.5975 6.47375 1.875 5.6875 C-3.7571774 0.42263852 -8.3424608 -0.57404087 -15.90234375 -0.33984375 C-24.13979729 0.56388697 -29.42994814 3.60609001 -34.625 10 C-38.64752336 15.85094306 -38.59969481 21.00980735 -38 28 C-36.13888481 33.48539214 -33.05939837 36.15912004 -28.17578125 39.09765625 C-22.50152278 41.4508945 -14.85591573 40.26614394 -9 39 C-10 41 -10 41 -12.6640625 42.1015625 C-19.32272805 43.89487992 -27.02745713 44.31522638 -33.4375 41.4375 C-37.97262325 38.75678096 -41.64583648 34.70832704 -44 30 C-44.7991867 21.81592358 -45.20862612 14.60321274 -39.83203125 7.9296875 C-39.22746094 7.29289062 -38.62289062 6.65609375 -38 6 C-37.38511719 5.34257812 -36.77023438 4.68515625 -36.13671875 4.0078125 C-26.54712638 -5.25508033 -11.40950195 -7.68395029 0 0 Z " fill="#92A7E8" transform="translate(167,358)"/>
<path d="M0 0 C15.84 0 31.68 0 48 0 C48 2.64 48 5.28 48 8 C41.96780145 8.14849192 35.93666987 8.25728505 29.90307617 8.32958984 C27.85145534 8.35973452 25.7999631 8.40065836 23.7487793 8.45263672 C20.79704059 8.52555446 17.84700726 8.55947901 14.89453125 8.5859375 C13.97976517 8.61690521 13.06499908 8.64787292 12.12251282 8.67977905 C5.90200507 8.68305505 5.90200507 8.68305505 3.2762146 6.69464111 C1.42650592 4.56423198 0 2.90301256 0 0 Z " fill="#6073AB" transform="translate(780,282)"/>
<path d="M0 0 C2.375 1.5625 2.375 1.5625 3.375 2.5625 C3.41580783 4.56208364 3.41754356 6.56295254 3.375 8.5625 C2.48304932 8.64814209 1.59109863 8.73378418 0.67211914 8.82202148 C-2.6770534 9.14391937 -6.02616705 9.46641778 -9.37524414 9.78930664 C-10.81727872 9.92821454 -12.25933553 10.06689176 -13.70141602 10.20532227 C-21.34867507 10.93956516 -28.99262885 11.68413773 -36.625 12.5625 C-27.34289111 2.3821225 -13.8474946 -5.49124786 0 0 Z " fill="#90A5D1" transform="translate(902.625,251.4375)"/>
<path d="M0 0 C-0.92670157 9.26701571 -0.92670157 9.26701571 -3 12 C-4.010625 12.639375 -5.02125 13.27875 -6.0625 13.9375 C-17.96688155 21.95676958 -23.32576514 37.70986311 -26 51 C-26.33 51 -26.66 51 -27 51 C-27.43153824 35.39557724 -21.50352123 16.55545788 -11.40234375 4.41796875 C-7.84774059 0.82375999 -5.03665152 -0.43171299 0 0 Z " fill="#ACC4EC" transform="translate(309,695)"/>
<path d="M0 0 C3.57561674 0.95931181 4.64083308 2.96463808 6.64453125 5.9609375 C7.5625 7.6875 7.5625 7.6875 7.5625 9.6875 C6.53125 9.8525 5.5 10.0175 4.4375 10.1875 C-0.69330089 11.70506083 -2.82761513 15.22231235 -5.4375 19.6875 C-12.02869615 31.9987367 -15.52005361 44.91216145 -17.4375 58.6875 C-17.7675 58.6875 -18.0975 58.6875 -18.4375 58.6875 C-19.11133999 46.33376682 -15.88122109 34.059584 -13 22.125 C-12.80704346 21.30475342 -12.61408691 20.48450684 -12.4152832 19.6394043 C-10.62533139 12.48616433 -7.92979846 2.23660982 0 0 Z " fill="#ADC5ED" transform="translate(232.4375,642.3125)"/>
<path d="M0 0 C-0.98507463 8.37313433 -0.98507463 8.37313433 -3 12 C-3.77214844 12.45503906 -4.54429687 12.91007813 -5.33984375 13.37890625 C-13.99351238 18.65243412 -18.17285787 28.82615589 -22.3359375 37.65625 C-24 41 -24 41 -26 43 C-25.47136258 36.27003901 -24.13429888 30.41441323 -21.875 24.0625 C-21.5651416 23.18658203 -21.2552832 22.31066406 -20.93603516 21.40820312 C-17.40105644 11.82218309 -11.91253634 -1.10814291 0 0 Z " fill="#ADC4ED" transform="translate(628,690)"/>
<path d="M0 0 C3.19472421 1.4744881 4.52871158 3.19364635 6.4375 6.125 C7.1875 8.4375 7.1875 8.4375 7.4375 10.125 C6.426875 10.08375 5.41625 10.0425 4.375 10 C1.58702766 10.40552325 0.57723956 10.98082895 -1.41015625 13.03125 C-9.21368699 23.87043996 -13.51794784 36.2442024 -16.5625 49.125 C-16.8925 49.125 -17.2225 49.125 -17.5625 49.125 C-17.83941146 42.43956617 -16.83433378 36.45192309 -15.375 29.9375 C-15.14941406 28.92316895 -14.92382812 27.90883789 -14.69140625 26.86376953 C-8.60552767 0.41978184 -8.60552767 0.41978184 0 0 Z " fill="#89A2D4" transform="translate(551.5625,644.875)"/>
<path d="M0 0 C2.50622054 2.50622054 2.7477109 4.32020715 3.5625 7.75 C3.81128906 8.77609375 4.06007813 9.8021875 4.31640625 10.859375 C4.9773644 13.8960056 5.51750762 16.93042946 6 20 C-0.91663627 18.90109517 -7.42736799 17.43430815 -14 15 C-13 13 -13 13 -9.8125 11.4375 C-5.0071726 8.84619742 -2.68693493 4.60617416 0 0 Z " fill="#526190" transform="translate(587,734)"/>
<path d="M0 0 C2.71553069 1.48916199 4.15053751 3.57351654 5.9375 6.0625 C4.926875 6.2275 3.91625 6.3925 2.875 6.5625 C-3.89994342 8.53339263 -7.63776279 14.92661416 -10.875 20.8125 C-13.49485855 26.3452276 -14.36698748 32.02088375 -15.0625 38.0625 C-15.3925 38.0625 -15.7225 38.0625 -16.0625 38.0625 C-16.85471762 25.84914495 -14.23339163 14.16693821 -7.0625 4.0625 C-3.19112454 0.09670074 -3.19112454 0.09670074 0 0 Z " fill="#ABC3EC" transform="translate(364.0625,711.9375)"/>
<path d="M0 0 C2.875 1 2.875 1 4.25 3.0625 C4.45625 3.701875 4.6625 4.34125 4.875 5 C3.3590625 5.7425 3.3590625 5.7425 1.8125 6.5 C-5.67307954 10.81860358 -10.60121475 17.81989204 -13.125 26 C-13.96551536 29.98164132 -14.60606008 33.96455927 -15.125 38 C-15.455 38 -15.785 38 -16.125 38 C-16.74078597 30.77477791 -16.02374272 24.49842152 -13.875 17.625 C-13.67044189 16.95984375 -13.46588379 16.2946875 -13.25512695 15.609375 C-11.20880698 9.44488443 -7.37824015 0 0 0 Z " fill="#ABC3EC" transform="translate(683.125,707)"/>
<path d="M0 0 C0 0.33 0 0.66 0 1 C-0.93960571 1.14248169 -0.93960571 1.14248169 -1.89819336 1.2878418 C-27.82185781 5.24987124 -52.89546601 10.43452042 -78 18 C-78.33 17.01 -78.66 16.02 -79 15 C-75.29426212 13.88699985 -71.58495965 12.78633787 -67.875 11.6875 C-66.84761719 11.37876953 -65.82023438 11.07003906 -64.76171875 10.75195312 C-52.43583351 7.11543419 -39.92264784 4.68552558 -27.24853516 2.63745117 C-25.23584269 2.3101981 -23.22544945 1.97066976 -21.21484375 1.63085938 C-14.10092379 0.45795852 -7.21883446 -0.35539206 0 0 Z " fill="#8CA0E0" transform="translate(196,222)"/>
<path d="M0 0 C0.33 0 0.66 0 1 0 C1.66 6.27 2.32 12.54 3 19 C-10.75 16.125 -10.75 16.125 -13 15 C-13 14.34 -13 13.68 -13 13 C-11.42578125 11.9921875 -11.42578125 11.9921875 -9.3125 10.875 C-5.16598605 8.4267923 -3.19128398 5.75757503 -0.91015625 1.57421875 C-0.60980469 1.05472656 -0.30945313 0.53523437 0 0 Z " fill="#7A8ECA" transform="translate(268,732)"/>
<path d="M0 0 C1.9375 0.125 1.9375 0.125 4 1 C5.75 3.0625 5.75 3.0625 7 5 C6.13375 5.33 5.2675 5.66 4.375 6 C-2.79292026 10.24765645 -6.03509742 17.46565932 -9 25 C-9.33 25 -9.66 25 -10 25 C-9.59060025 18.23784552 -8.43046191 12.32837252 -6 6 C-5.34 6 -4.68 6 -4 6 C-3.71125 5.38125 -3.4225 4.7625 -3.125 4.125 C-2 2 -2 2 0 0 Z " fill="#89A1D4" transform="translate(567,677)"/>
<path d="M0 0 C2.32070777 1.31506774 3.44012796 2.83844834 4.875 5.0625 C3.328125 5.495625 3.328125 5.495625 1.75 5.9375 C-3.60108963 8.23391903 -5.7282934 13.00762791 -8.125 18.0625 C-9.28431731 21.02616831 -10.28029007 23.9948692 -11.125 27.0625 C-11.455 27.0625 -11.785 27.0625 -12.125 27.0625 C-12.91140512 19.19844883 -10.54042492 12.12104483 -7.125 5.0625 C-2.79042916 0.08207145 -2.79042916 0.08207145 0 0 Z " fill="#ACC4EC" transform="translate(250.125,674.9375)"/>
<path d="M0 0 C18.39778848 -0.56900377 34.89879943 0.70687173 49.8125 12.9375 C50.534375 13.618125 51.25625 14.29875 52 15 C48.08954317 15 45.78869665 13.23014803 42.5625 11.25 C31.59213378 4.74421784 20.77761564 2.09157589 8.125 1.4375 C7.34125 1.39431641 6.5575 1.35113281 5.75 1.30664062 C3.83349351 1.20146649 1.91676667 1.10032075 0 1 C0 0.67 0 0.34 0 0 Z " fill="#8FA3E1" transform="translate(328,173)"/>
<path d="M0 0 C3.07885481 1.65206844 4.02149296 3.29298591 5.5625 6.375 C4.985 6.065625 4.4075 5.75625 3.8125 5.4375 C1.71955816 4.44916636 -0.18285275 3.8581387 -2.4375 3.375 C-3.365625 4.6125 -3.365625 4.6125 -4.3125 5.875 C-5.01375 6.7 -5.715 7.525 -6.4375 8.375 C-7.0975 8.375 -7.7575 8.375 -8.4375 8.375 C-8.56125 9.40625 -8.685 10.4375 -8.8125 11.5 C-9.38247139 15.03382259 -10.0287414 18.0878966 -11.4375 21.375 C-12.4275 21.705 -13.4175 22.035 -14.4375 22.375 C-13.78393396 18.46796783 -12.63289233 15.0350235 -11.125 11.375 C-10.71636719 10.364375 -10.30773437 9.35375 -9.88671875 8.3125 C-5.13602897 -1.3169305 -5.13602897 -1.3169305 0 0 Z " fill="#7385BB" transform="translate(569.4375,674.625)"/>
<path d="M0 0 C2.46800047 1.15173355 4.04783565 2.04783565 6 4 C6.125 7.625 6.125 7.625 6 11 C4.35 11.33 2.7 11.66 1 12 C-1.37600959 8.53498602 -2.57258316 6.23711541 -2 2 C-1.34 1.34 -0.68 0.68 0 0 Z " fill="#F0EFF2" transform="translate(163,369)"/>
<path d="M0 0 C0.66 0.33 1.32 0.66 2 1 C1.56945312 1.35191406 1.13890625 1.70382812 0.6953125 2.06640625 C-1.62512234 4.71298516 -2.8032669 7.71951163 -4.125 10.9375 C-4.38925781 11.55818359 -4.65351563 12.17886719 -4.92578125 12.81835938 C-5.97697523 15.32361609 -6.94059038 17.71285351 -7.4921875 20.37890625 C-7.65976563 20.91386719 -7.82734375 21.44882812 -8 22 C-8.99 22.33 -9.98 22.66 -11 23 C-9.61062274 14.52479871 -6.54706762 5.9021326 0 0 Z " fill="#8B9EC9" transform="translate(247,672)"/>
<path d="M0 0 C0.33 0.66 0.66 1.32 1 2 C1.66 2.33 2.32 2.66 3 3 C2.79503906 3.90621094 2.59007812 4.81242188 2.37890625 5.74609375 C0.88505559 12.50058595 -0.40574086 19.10659397 -1 26 C-1.33 26 -1.66 26 -2 26 C-2.26197285 17.10747704 -1.6039348 8.75003718 0 0 Z " fill="#A3BAE4" transform="translate(312,726)"/>
<path d="M0 0 C0.66 0.33 1.32 0.66 2 1 C1.38511719 1.97839844 1.38511719 1.97839844 0.7578125 2.9765625 C-2.6811261 8.54240941 -2.6811261 8.54240941 -5.1875 14.5625 C-5.455625 15.366875 -5.72375 16.17125 -6 17 C-6.99 17.33 -7.98 17.66 -9 18 C-8.39916639 13.92768333 -7.06294995 10.89765847 -5.0625 7.3125 C-4.53785156 6.35988281 -4.01320312 5.40726563 -3.47265625 4.42578125 C-2 2 -2 2 0 0 Z " fill="#8DA0CC" transform="translate(228,641)"/>
<path d="M0 0 C0.99 0.33 1.98 0.66 3 1 C2.79503906 1.99 2.59007812 2.98 2.37890625 4 C1.01770919 10.6445586 -0.31074974 17.24534748 -1 24 C-1.33 24 -1.66 24 -2 24 C-2.26305952 15.7574683 -1.60614551 8.08808989 0 0 Z " fill="#A4BBE5" transform="translate(631,722)"/>
<path d="M0 0 C0.33 0.66 0.66 1.32 1 2 C1.66 2.33 2.32 2.66 3 3 C1.68 9.6 0.36 16.2 -1 23 C-1.33 23 -1.66 23 -2 23 C-2.2700558 15.1683819 -1.23107719 7.72720775 0 0 Z " fill="#A4BBE5" transform="translate(216,678)"/>
<path d="M0 0 C4.34887281 0.50179302 6.9247954 3.06147116 10 6 C10.67578125 8.16796875 10.67578125 8.16796875 11 10 C7.19364503 6.79239749 3.45436433 3.59253891 0 0 Z " fill="#8EA2DF" transform="translate(161,356)"/>
<path d="M0 0 C0 0.66 0 1.32 0 2 C-1.62171239 2.38897161 -3.24754925 2.76078298 -4.875 3.125 C-5.77992188 3.33382812 -6.68484375 3.54265625 -7.6171875 3.7578125 C-8.40351563 3.83773437 -9.18984375 3.91765625 -10 4 C-10.66 3.34 -11.32 2.68 -12 2 C-10.7625 1.67 -9.525 1.34 -8.25 1 C-7.55390625 0.814375 -6.8578125 0.62875 -6.140625 0.4375 C-4 0 -4 0 0 0 Z " fill="#879AD8" transform="translate(145,230)"/>
<path d="M0 0 C0.66 0.33 1.32 0.66 2 1 C0.35 2.65 -1.3 4.3 -3 6 C-3.99 5.67 -4.98 5.34 -6 5 C-2.25 1.125 -2.25 1.125 0 0 Z " fill="#8CA1E2" transform="translate(97,245)"/>
<path d="M0 0 C-2.17424117 2.50037734 -3.73045798 3.43628586 -7 4 C-7.33 3.01 -7.66 2.02 -8 1 C-2.25 -1.125 -2.25 -1.125 0 0 Z " fill="#899DDC" transform="translate(125,236)"/>
</svg>
